<?xml version="1.0" encoding="UTF-8" standalone="no"?>
<svg
   xmlns:dc="http://purl.org/dc/elements/1.1/"
   xmlns:cc="http://creativecommons.org/ns#"
   xmlns:rdf="http://www.w3.org/1999/02/22-rdf-syntax-ns#"
   xmlns:svg="http://www.w3.org/2000/svg"
   xmlns="http://www.w3.org/2000/svg"
   xmlns:xlink="http://www.w3.org/1999/xlink"
   xmlns:sodipodi="http://sodipodi.sourceforge.net/DTD/sodipodi-0.dtd"
   xmlns:inkscape="http://www.inkscape.org/namespaces/inkscape"
   width="1076.11mm"
   height="381.78201mm"
   viewBox="0 0 1076.11 381.78201"
   version="1.1"
   id="svg8"
   inkscape:version="1.0.1 (3bc2e813f5, 2020-09-07)"
   sodipodi:docname="FULL.svg">
  <defs
     id="defs2">
    <linearGradient
       inkscape:collect="always"
       id="linearGradient1118">
      <stop
         style="stop-color:#000000;stop-opacity:1;"
         offset="0"
         id="stop1114" />
      <stop
         style="stop-color:#000000;stop-opacity:0;"
         offset="1"
         id="stop1116" />
    </linearGradient>
    <radialGradient
       id="skoll-burning-skull-gradient-0">
      <stop
         offset="0%"
         stop-color="#000"
         stop-opacity="1"
         id="stop833" />
      <stop
         offset="100%"
         stop-color="#000"
         stop-opacity="1"
         id="stop835" />
    </radialGradient>
    <radialGradient
       id="delapouite-coins-pile-gradient-0">
      <stop
         offset="0%"
         stop-color="#000"
         stop-opacity="1"
         id="stop855" />
      <stop
         offset="100%"
         stop-color="#000"
         stop-opacity="1"
         id="stop857" />
    </radialGradient>
    <radialGradient
       id="lorc-crossed-axes-gradient-0">
      <stop
         offset="0%"
         stop-color="#000"
         stop-opacity="1"
         id="stop877" />
      <stop
         offset="100%"
         stop-color="#000"
         stop-opacity="1"
         id="stop879" />
    </radialGradient>
    <radialGradient
       id="delapouite-cyber-eye-gradient-0">
      <stop
         offset="0%"
         stop-color="#000"
         stop-opacity="1"
         id="stop899" />
      <stop
         offset="100%"
         stop-color="#000"
         stop-opacity="1"
         id="stop901" />
    </radialGradient>
    <radialGradient
       id="skoll-fangs-gradient-0">
      <stop
         offset="0%"
         stop-color="#000"
         stop-opacity="1"
         id="stop921" />
      <stop
         offset="100%"
         stop-color="#000"
         stop-opacity="1"
         id="stop923" />
    </radialGradient>
    <radialGradient
       id="lorc-flaming-claw-gradient-0">
      <stop
         offset="0%"
         stop-color="#000"
         stop-opacity="1"
         id="stop943" />
      <stop
         offset="100%"
         stop-color="#000"
         stop-opacity="1"
         id="stop945" />
    </radialGradient>
    <radialGradient
       id="delapouite-frog-prince-gradient-0">
      <stop
         offset="0%"
         stop-color="#000"
         stop-opacity="1"
         id="stop965" />
      <stop
         offset="100%"
         stop-color="#000"
         stop-opacity="1"
         id="stop967" />
    </radialGradient>
    <radialGradient
       id="lorc-grim-reaper-gradient-0">
      <stop
         offset="0%"
         stop-color="#000"
         stop-opacity="1"
         id="stop987" />
      <stop
         offset="100%"
         stop-color="#000"
         stop-opacity="1"
         id="stop989" />
    </radialGradient>
    <radialGradient
       id="lorc-holy-grail-gradient-0">
      <stop
         offset="0%"
         stop-color="#000"
         stop-opacity="1"
         id="stop1009" />
      <stop
         offset="100%"
         stop-color="#000"
         stop-opacity="1"
         id="stop1011" />
    </radialGradient>
    <radialGradient
       id="delapouite-jet-fighter-gradient-0">
      <stop
         offset="0%"
         stop-color="#000"
         stop-opacity="1"
         id="stop1031" />
      <stop
         offset="100%"
         stop-color="#000"
         stop-opacity="1"
         id="stop1033" />
    </radialGradient>
    <radialGradient
       id="lorc-locked-chest-gradient-0">
      <stop
         offset="0%"
         stop-color="#000"
         stop-opacity="1"
         id="stop1053" />
      <stop
         offset="100%"
         stop-color="#000"
         stop-opacity="1"
         id="stop1055" />
    </radialGradient>
    <radialGradient
       id="lorc-octopus-gradient-0">
      <stop
         offset="0%"
         stop-color="#000"
         stop-opacity="1"
         id="stop1075" />
      <stop
         offset="100%"
         stop-color="#000"
         stop-opacity="1"
         id="stop1077" />
    </radialGradient>
    <radialGradient
       id="delapouite-pirate-captain-gradient-0">
      <stop
         offset="0%"
         stop-color="#000"
         stop-opacity="1"
         id="stop1097" />
      <stop
         offset="100%"
         stop-color="#000"
         stop-opacity="1"
         id="stop1099" />
    </radialGradient>
    <radialGradient
       id="skoll-revolver-gradient-0">
      <stop
         offset="0%"
         stop-color="#000"
         stop-opacity="1"
         id="stop1119" />
      <stop
         offset="100%"
         stop-color="#000"
         stop-opacity="1"
         id="stop1121" />
    </radialGradient>
    <radialGradient
       id="lorc-round-bottom-flask-gradient-0">
      <stop
         offset="0%"
         stop-color="#000"
         stop-opacity="1"
         id="stop1141" />
      <stop
         offset="100%"
         stop-color="#000"
         stop-opacity="1"
         id="stop1143" />
    </radialGradient>
    <radialGradient
       id="delapouite-secret-book-gradient-0">
      <stop
         offset="0%"
         stop-color="#000"
         stop-opacity="1"
         id="stop1163" />
      <stop
         offset="100%"
         stop-color="#000"
         stop-opacity="1"
         id="stop1165" />
    </radialGradient>
    <radialGradient
       id="lorc-shark-jaws-gradient-0">
      <stop
         offset="0%"
         stop-color="#000"
         stop-opacity="1"
         id="stop1185" />
      <stop
         offset="100%"
         stop-color="#000"
         stop-opacity="1"
         id="stop1187" />
    </radialGradient>
    <radialGradient
       id="carl-olsen-spider-face-gradient-0">
      <stop
         offset="0%"
         stop-color="#000"
         stop-opacity="1"
         id="stop1207" />
      <stop
         offset="100%"
         stop-color="#000"
         stop-opacity="1"
         id="stop1209" />
    </radialGradient>
    <radialGradient
       id="delapouite-spiked-dragon-head-gradient-0">
      <stop
         offset="0%"
         stop-color="#000"
         stop-opacity="1"
         id="stop1229" />
      <stop
         offset="100%"
         stop-color="#000"
         stop-opacity="1"
         id="stop1231" />
    </radialGradient>
    <radialGradient
       id="lorc-stone-tower-gradient-0">
      <stop
         offset="0%"
         stop-color="#000"
         stop-opacity="1"
         id="stop1251" />
      <stop
         offset="100%"
         stop-color="#000"
         stop-opacity="1"
         id="stop1253" />
    </radialGradient>
    <radialGradient
       id="lorc-sword-in-stone-gradient-0">
      <stop
         offset="0%"
         stop-color="#000"
         stop-opacity="1"
         id="stop1273" />
      <stop
         offset="100%"
         stop-color="#000"
         stop-opacity="1"
         id="stop1275" />
    </radialGradient>
    <radialGradient
       id="delapouite-viking-helmet-gradient-0">
      <stop
         offset="0%"
         stop-color="#000"
         stop-opacity="1"
         id="stop1295" />
      <stop
         offset="100%"
         stop-color="#000"
         stop-opacity="1"
         id="stop1297" />
    </radialGradient>
    <radialGradient
       id="delapouite-astronaut-helmet-gradient-0">
      <stop
         offset="0%"
         stop-color="#000"
         stop-opacity="1"
         id="stop1317" />
      <stop
         offset="100%"
         stop-color="#000"
         stop-opacity="1"
         id="stop1319" />
    </radialGradient>
    <radialGradient
       id="lorc-beast-eye-gradient-0">
      <stop
         offset="0%"
         stop-color="#000"
         stop-opacity="1"
         id="stop1339" />
      <stop
         offset="100%"
         stop-color="#000"
         stop-opacity="1"
         id="stop1341" />
    </radialGradient>
    <radialGradient
       id="lorc-bloody-sword-gradient-0">
      <stop
         offset="0%"
         stop-color="#000"
         stop-opacity="1"
         id="stop1361" />
      <stop
         offset="100%"
         stop-color="#000"
         stop-opacity="1"
         id="stop1363" />
    </radialGradient>
    <radialGradient
       id="lorc-brass-eye-gradient-0">
      <stop
         offset="0%"
         stop-color="#000"
         stop-opacity="1"
         id="stop1383" />
      <stop
         offset="100%"
         stop-color="#000"
         stop-opacity="1"
         id="stop1385" />
    </radialGradient>
    <radialGradient
       id="lorc-holy-grail-gradient-0-2">
      <stop
         offset="0%"
         stop-color="#000"
         stop-opacity="1"
         id="stop1407" />
      <stop
         offset="100%"
         stop-color="#000"
         stop-opacity="1"
         id="stop1409" />
    </radialGradient>
    <radialGradient
       id="lorc-key-gradient-0">
      <stop
         offset="0%"
         stop-color="#000"
         stop-opacity="1"
         id="stop1429" />
      <stop
         offset="100%"
         stop-color="#000"
         stop-opacity="1"
         id="stop1431" />
    </radialGradient>
    <linearGradient
       inkscape:collect="always"
       xlink:href="#linearGradient1118"
       id="linearGradient1377"
       x1="-26.695686"
       y1="-131.45056"
       x2="-27.764765"
       y2="-516.31866"
       gradientUnits="userSpaceOnUse" />
  </defs>
  <sodipodi:namedview
     id="base"
     pagecolor="#ffffff"
     bordercolor="#666666"
     borderopacity="1.0"
     inkscape:pageopacity="0.0"
     inkscape:pageshadow="2"
     inkscape:zoom="0.24748737"
     inkscape:cx="2349.2608"
     inkscape:cy="462.15253"
     inkscape:document-units="mm"
     inkscape:current-layer="layer1"
     inkscape:document-rotation="0"
     showgrid="false"
     inkscape:window-width="1920"
     inkscape:window-height="1027"
     inkscape:window-x="-8"
     inkscape:window-y="-8"
     inkscape:window-maximized="1" />
  <metadata
     id="metadata5">
    <rdf:RDF>
      <cc:Work
         rdf:about="">
        <dc:format>image/svg+xml</dc:format>
        <dc:type
           rdf:resource="http://purl.org/dc/dcmitype/StillImage" />
        <dc:title></dc:title>
      </cc:Work>
    </rdf:RDF>
  </metadata>
  <g
     inkscape:label="Layer 1"
     inkscape:groupmode="layer"
     id="layer1"
     style="display:inline">
    <g
       id="g1514"
       transform="translate(567.64921,515.2496)"
       style="mix-blend-mode:normal;fill:url(#linearGradient1377);fill-opacity:1;opacity:0.50641026">
      <g
         id="g1471"
         transform="translate(-2.1253322)"
         style="fill:url(#linearGradient1377);fill-opacity:1.0">
        <path
           d="m -262.69399,-289.58245 0.98954,7.59354 h -8.17298 l 0.98955,-7.59354 a 3.096948,3.096948 0 1 1 6.19389,0 z m 8.9535,-19.00503 a 7.8052083,7.8052083 0 1 0 7.80521,7.80521 7.8052083,7.8052083 0 0 0 -7.80785,-7.80521 z m -24.97666,0 a 7.8052083,7.8052083 0 1 0 7.8052,7.80521 7.8052083,7.8052083 0 0 0 -7.80785,-7.80521 z m 65.01077,-16.40416 c 0,25.98208 -12.75821,48.33409 -31.05944,58.27184 -12.17083,7.47712 -29.83706,7.47712 -41.32527,0.66145 -18.97592,-9.58056 -32.32415,-32.3559 -32.32415,-58.93065 0,-20.67983 8.08038,-39.06043 20.6084,-50.71268 0,0 -11.13367,21.92338 2.4077,35.71875 -3.08768,-45.97664 44.78867,-16.66875 31.22084,-48.68333 40.16111,22.04773 2.41829,27.78125 22.25146,39.21389 0,0 17.51806,12.43542 9.63084,-24.27023 11.36385,11.63903 18.58697,29.18354 18.58697,48.7336 z m -18.13454,7.9031 c -0.64823,-17.32756 -14.52034,-31.64152 -31.8188,-32.82685 -0.80962,-0.0556 -1.62718,-0.082 -2.42358,-0.082 a 34.237083,34.237083 0 0 0 -34.24502,34.22385 34.964687,34.964687 0 0 0 6.48493,20.10833 v 6.61459 a 9.2604167,9.2604167 0 0 0 9.19163,9.1784 h 1.65629 v 4.39473 a 9.1704583,9.1704583 0 0 0 9.18369,9.09902 h 16.34596 a 9.1228333,9.1228333 0 0 0 9.13077,-9.09902 v -4.39473 h 1.42346 a 9.2313125,9.2313125 0 0 0 9.15987,-9.19427 v -7.40834 a 34.215917,34.215917 0 0 0 5.90815,-20.61104 z"
           fill="#ffffff"
           fill-opacity="1"
           id="path840"
           style="fill:url(#linearGradient1377);fill-opacity:1.0;stroke-width:0.264583" />
        <path
           d="m 487.59846,-386.35801 c -2.51354,4.58787 -6.72041,6.17537 -13.12333,3.74385 4.73604,2.70934 7.54063,6.61194 6.50875,12.86934 3.28083,-5.63298 7.72583,-6.47965 13.07042,-3.73328 -4.84188,-2.9845 -8.83709,-6.4082 -6.45584,-12.87991 z m -59.55771,5.78379 c -0.89958,7.18873 -2.8575,13.54667 -12.40896,13.78479 7.24959,0.82286 11.72104,5.05619 12.40896,13.8139 0.60854,-6.90563 3.86292,-12.09146 12.3825,-13.8139 -9.02229,-1.23031 -12.7,-6.13304 -12.3825,-13.78479 z m -31.82938,14.7664 c -1.4552,5.82083 -5.02708,8.59895 -11.43,7.35541 5.3975,3.33375 6.4823,8.01688 5.3975,13.38791 2.38125,-6.42937 6.35,-8.54603 11.48292,-7.40832 -6.45583,-2.48709 -6.40292,-7.72584 -5.45042,-13.335 z m 82.12668,0.21166 c 0.9525,5.60917 1.00541,10.84792 -5.42396,13.335 5.10646,-1.13771 9.07521,0.97896 11.45646,7.40833 -1.08479,-5.34458 0,-10.05416 5.3975,-13.38791 -6.40292,1.24354 -9.97479,-1.53458 -11.43,-7.35542 z m -36.88292,13.75834 c -2.54,0 -4.78896,0.635 -6.27063,1.53458 -1.45521,0.89958 -1.93146,1.7727 -1.93146,2.46062 0,0.68792 0.47625,1.56104 1.93146,2.46062 1.48167,0.87313 3.73063,1.50813 6.27063,1.50813 1.03187,0 2.03729,-0.10583 2.93687,-0.29104 1.45521,-1.61396 3.30729,-2.69875 5.21229,-3.33375 0.15875,-1.29646 -1.24354,-2.40771 -1.87854,-2.80458 -1.48167,-0.89958 -3.73062,-1.53458 -6.27062,-1.53458 z m -11.93271,7.46124 c -1.64042,0.23813 -2.40771,0.82021 -2.69875,1.42875 -0.50271,3.30729 3.43958,5.87375 5.84729,7.01146 2.30187,1.03187 4.63021,1.37583 6.32354,1.19062 1.69333,-0.1852 2.48708,-0.8202 2.77813,-1.42875 0.29104,-0.635 0.21166,-1.61395 -0.68792,-2.93687 -3.175,-0.0529 -6.0325,-0.82021 -8.33438,-2.19604 -1.29645,-0.79375 -2.46062,-1.82563 -3.22791,-3.06917 z m 26.08792,0.68792 c -2.54,0 -4.78896,0.635 -6.27063,1.50812 -1.45521,0.89959 -1.93146,1.77271 -1.93146,2.46063 0,0.68791 0.47625,1.56104 1.93146,2.46062 1.48167,0.87313 3.73063,1.50813 6.27063,1.50813 2.54,0 4.78895,-0.635 6.27062,-1.50813 1.45521,-0.89958 1.93146,-1.77271 1.93146,-2.46062 0,-0.68792 -0.47625,-1.56104 -1.93146,-2.46063 -1.48167,-0.87312 -3.73062,-1.50812 -6.27062,-1.50812 z m 12.91166,3.25437 c 1.34938,2.75167 -2.72521,6.29709 -4.65666,7.51417 0.37041,0.18521 0.84666,0.34396 1.4552,0.47625 1.69334,0.3175 4.02167,0.15875 6.40292,-0.71438 2.0373,-0.74083 3.73063,-1.85208 4.86834,-2.98979 0.10583,-1.50812 0.3175,-2.91041 1.24354,-3.96875 -2.77813,-1.82562 -6.56167,-1.34937 -9.31334,-0.3175 z m -53.44583,-0.39687 c -2.54,0 -4.78896,0.635 -6.27063,1.50812 1.21708,1.66688 1.50813,3.4925 1.19063,5.50334 1.37583,0.55562 3.14854,0.92604 5.08,0.92604 2.54,0 4.78896,-0.635 6.27062,-1.50813 1.45521,-0.89958 1.93146,-1.77271 1.93146,-2.46062 0,-0.68792 -0.47625,-1.56104 -1.93146,-2.46063 -1.48166,-0.87312 -3.73062,-1.50812 -6.27062,-1.50812 z m 66.43688,3.75708 c -0.71438,3.22792 3.12208,6.08542 5.42396,7.32896 2.24895,1.16417 4.52437,1.64042 6.24416,1.56104 1.69334,-0.10583 2.54,-0.66146 2.8575,-1.27 0.3175,-0.60854 0.3175,-1.61396 -0.58208,-3.06917 -0.89958,-1.4552 -2.59292,-3.06916 -4.84188,-4.25979 -1.71979,-0.82021 -7.64645,-2.93687 -9.10166,-0.29104 z m -80.03647,-0.23812 c -1.56104,-0.0265 -3.46604,0.3175 -5.37104,1.11125 -2.32833,0.97895 -4.15396,2.43416 -5.15937,3.81 -1.00542,1.40229 -1.11125,2.38125 -0.84667,3.01625 0.26458,0.635 1.05833,1.27 2.75167,1.53458 1.66687,0.23812 3.9952,-0.0529 6.35,-1.05833 2.35479,-0.97896 4.18041,-2.43417 5.18583,-3.81 1.00542,-1.4023 1.11125,-2.38125 0.84667,-3.01625 -1.13771,-1.29646 -2.24896,-1.5875 -3.75709,-1.5875 z m 44.45,3.46604 c -0.8202,1.53458 -2.19604,2.59291 -3.81,3.20146 1.69334,1.03187 3.04271,2.56645 3.46605,4.55083 0.58208,2.77812 -0.79375,5.3975 -2.83105,7.27604 -2.03729,1.905 -4.81541,3.28083 -8.06979,3.94229 -3.22791,0.68792 -6.35,0.55563 -8.96937,-0.34396 -2.61938,-0.89958 -4.92125,-2.75166 -5.50334,-5.50333 -0.58208,-2.77812 0.7673,-5.3975 2.80459,-7.27604 1.87854,-1.74625 4.41854,-3.06917 7.32896,-3.78354 -1.16417,-0.52917 -2.2225,-1.16417 -3.175,-1.87854 -0.7673,1.37583 -1.98438,2.48708 -3.38667,3.33375 -2.38125,1.42875 -5.3975,2.19604 -8.70479,2.19604 -2.61938,0 -5.05355,-0.47625 -7.14375,-1.40229 -1.61396,2.0902 -4.02167,3.83645 -6.87917,5.02708 -2.77813,1.16417 -5.55625,1.66687 -8.09625,1.45521 -1.00542,1.98437 -3.01625,3.28083 -5.18583,3.96875 -2.6723,0.82021 -5.79438,0.84666 -8.99584,0.0529 -0.0794,-0.0265 -0.15875,-0.0265 -0.21166,-0.0529 v 12.22375 c 0.74083,-0.39688 1.56104,-0.68792 2.38125,-0.87313 0.89958,-0.21166 1.85208,-0.3175 2.83104,-0.34396 v -0.0529 c -0.76729,-2.72521 0.44979,-5.42396 2.35479,-7.43479 1.905,-2.01084 4.60375,-3.57188 7.80521,-4.445 3.05858,-0.79375 6.11187,-0.97896 8.96937,-0.21167 2.67229,0.74083 5.10646,2.43417 5.84729,5.15937 0.7673,2.72521 -0.42333,5.42396 -2.35479,7.4348 -1.905,2.01083 -4.60375,3.54541 -7.80521,4.445 -0.47625,0.13229 -0.97895,0.23812 -1.48166,0.34395 1.97379,2.2225 3.12208,5.74146 2.46062,7.99042 -0.87312,2.67229 -3.36021,4.25979 -6.05896,4.89479 -2.7252,0.635 -5.82083,0.42334 -8.96937,-0.58208 -2.30188,-0.74083 -4.33917,-1.82562 -5.97958,-3.20146 v 30.13604 h 20.42583 c -1.05833,-2.83104 1.03187,-3.01625 -1.905,-4.25979 -3.06917,-1.24354 -5.55625,-3.12208 -7.22313,-5.34458 -1.66687,-2.2225 -2.51354,-5.05354 -1.4552,-7.67292 1.08479,-2.59291 3.6777,-3.99521 6.42937,-4.41854 2.75167,-0.39687 5.84729,0.0265 8.89,1.29646 3.06917,1.24354 5.55625,3.12208 7.22313,5.34458 0.60854,0.82021 1.11125,1.69334 1.4552,2.61938 2.2225,-0.15875 4.33917,0.10583 6.21771,0.74083 2.61938,0.89958 4.92125,2.75167 5.50334,5.50333 0.47625,2.27542 -0.34396,4.445 -1.77271,6.19125 h 67.7598 c -1.66688,-1.93145 -2.64584,-4.39208 -1.95792,-6.93208 0.74083,-2.72521 3.14854,-4.41854 5.82083,-5.18583 2.67229,-0.76729 5.79438,-0.71438 8.96938,0.15875 0.44979,0.13229 0.87312,0.26458 1.29646,0.42333 v -26.77584 c -2.91042,0.47625 -5.715,0.29104 -8.09625,-0.52917 -2.61938,-0.89958 -4.92125,-2.75167 -5.50334,-5.50333 -0.58208,-2.77813 0.76729,-5.3975 2.80459,-7.27605 3.4925,-2.67229 6.82625,-4.07458 10.795,-4.3127 v -0.29105 c -3.96875,0.0529 -9.49855,-1.4552 -11.8798,-3.59833 -2.46062,-0.0529 -5.08,-0.76729 -7.64645,-2.11667 -2.83105,-1.48166 -5.05355,-3.46604 -6.50875,-5.74145 -1.4023,1.05833 -3.04271,1.93145 -4.84188,2.59291 -3.12209,1.13771 -6.21771,1.45521 -8.94292,0.92604 -2.27542,-0.44979 -4.41854,-1.56104 -5.63562,-3.46604 -1.00542,0.15875 -2.09021,0.23813 -3.175,0.23813 -3.3073,0 -6.32355,-0.76729 -8.7048,-2.19604 -0.34396,-0.21167 -0.66146,-0.42334 -0.97896,-0.66146 z m 54.76876,1.56104 c 0.50271,2.93687 0.0794,5.26521 -2.11667,7.06437 2.06375,0.58209 3.75709,0.7673 5.66209,0.635 v -7.83166 c -1.19063,-0.0794 -2.46063,-0.0529 -3.54542,0.13229 z m -122.39626,0.47625 v 7.64646 c 2.49767,0.84666 5.60388,1.24354 8.04334,0.52916 0.87312,-0.26458 1.4552,-0.58208 1.85208,-0.9525 -1.90765,-1.40229 -2.97392,-3.25437 -2.98979,-5.47687 -0.97896,-0.52917 -2.11667,-0.97896 -3.38667,-1.29646 -1.21708,-0.29104 -2.43417,-0.44979 -3.51896,-0.44979 z m 53.76334,4.52437 c -2.48709,0.52917 -4.55084,1.61396 -5.82084,2.75167 -1.24354,1.19063 -1.50812,2.14313 -1.37583,2.83104 0.13229,0.66146 0.79375,1.42875 2.40771,1.98438 1.61396,0.55562 3.94229,0.71437 6.42937,0.18521 2.48709,-0.52917 4.55084,-1.61396 5.82084,-2.75167 1.24354,-1.19063 1.53458,-2.14313 1.40229,-2.80458 -0.15875,-0.68792 -0.79375,-1.42875 -2.40771,-2.01084 -2.19604,-0.635 -4.39208,-0.635 -6.45583,-0.18521 z m -36.85646,11.85334 c -2.46063,0.68791 -4.47146,1.905 -5.63563,3.12208 -1.16416,1.27 -1.40229,2.2225 -1.21708,2.91042 0.18521,0.66146 0.87312,1.34937 2.54,1.85208 1.61396,0.44979 3.96875,0.44979 6.42937,-0.23812 2.43417,-0.66146 4.47146,-1.87855 5.63563,-3.12209 1.16417,-1.24354 1.40229,-2.2225 1.21708,-2.88396 -0.18521,-0.66145 -0.89958,-1.37583 -2.54,-1.85208 -2.09285,-0.52917 -4.45294,-0.34396 -6.42937,0.21167 z m 69.05625,0.0265 c 1.71979,0.0265 3.33375,0.29104 4.81542,0.79375 2.64583,0.92604 4.94771,2.75166 5.52979,5.52979 0.26459,1.29646 0.10584,2.59292 -0.37041,3.78354 2.61937,0.89958 4.84187,2.27542 6.50875,3.96875 1.905,2.01083 3.12208,4.70958 2.38125,7.43479 -0.74084,2.72521 -3.14855,4.445 -5.82084,5.18584 -2.67229,0.76729 -5.76792,0.71437 -8.96938,-0.15875 -3.20145,-0.84667 -5.9002,-2.38125 -7.83166,-4.39209 -1.16417,-1.21708 -2.09021,-2.67229 -2.43417,-4.25979 -1.16417,-0.10583 -2.30187,-0.34396 -3.33375,-0.71438 -2.61937,-0.89958 -4.92125,-2.7252 -5.50333,-5.50333 -0.58209,-2.77812 0.79375,-5.37104 2.83104,-7.27604 2.01083,-1.87854 4.81542,-3.25438 8.04333,-3.94229 1.42875,-0.29104 2.80459,-0.44979 4.15396,-0.44979 z m 39.97855,0.635 c -0.58209,0.0529 -1.16417,0.13229 -1.74625,0.26458 -2.48709,0.52917 -4.55084,1.61396 -5.82084,2.75167 -1.24354,1.19062 -1.50812,2.14312 -1.37583,2.83104 0.13229,0.66146 0.79375,1.42875 2.38125,1.98437 1.64042,0.55563 3.96875,0.71438 6.45583,0.18521 0.0265,0 0.0794,-0.0265 0.10584,-0.0265 z m -43.15355,4.47146 c -2.46062,0.52916 -4.55083,1.61395 -5.82083,2.77812 -1.21709,1.16417 -1.50813,2.11667 -1.37584,2.80458 0.1323,0.66146 0.79375,1.42875 2.40771,2.01084 1.61396,0.55562 3.94229,0.71437 6.42938,0.18521 2.48708,-0.52917 4.57729,-1.61396 5.82083,-2.77813 1.24354,-1.19062 1.53458,-2.14312 1.40229,-2.80458 -0.15875,-0.66146 -0.79375,-1.42875 -2.40771,-2.01084 -2.19604,-0.635 -4.39208,-0.635 -6.45583,-0.1852 z m -35.29542,1.50812 c 3.22792,0.68792 6.00604,2.09021 8.04334,3.99521 2.01083,1.905 3.38666,4.52437 2.77812,7.27604 -0.60854,2.77813 -2.91042,4.60375 -5.55625,5.50333 -2.61937,0.87313 -5.74146,1.00542 -8.96937,0.29105 -3.22792,-0.68792 -6.00605,-2.09021 -8.04334,-3.96875 -2.01083,-1.905 -3.38667,-4.52438 -2.77812,-7.3025 0.60854,-2.77813 2.91041,-4.60375 5.55625,-5.47688 3.04271,-0.9525 6.08541,-0.89958 8.96937,-0.3175 z m -7.46125,4.81542 c -1.61396,0.55562 -2.27542,1.32291 -2.40771,1.98437 -0.15875,0.68792 0.13229,1.64042 1.37584,2.80459 1.24354,1.19062 3.30729,2.27541 5.79437,2.80458 2.48709,0.55562 4.81542,0.39687 6.45584,-0.13229 1.61395,-0.58209 2.24895,-1.32292 2.4077,-2.01084 0.1323,-0.66145 -0.13229,-1.61395 -1.37583,-2.80458 -1.27,-1.16417 -3.33375,-2.27542 -5.79437,-2.80458 -2.11667,-0.39688 -4.41855,-0.47625 -6.45584,0.15875 z m -36.32729,0.87312 c -1.64042,0.39688 -2.38125,1.08479 -2.59292,1.74625 -0.21166,0.66146 -0.0265,1.61396 1.08479,2.93688 1.13771,1.27 3.09563,2.56645 5.50334,3.3602 2.43416,0.7673 4.7625,0.87313 6.42937,0.47625 1.66688,-0.39687 2.38125,-1.08479 2.59292,-1.74625 0.21167,-0.635 0.0265,-1.61395 -1.08479,-2.93687 -1.13771,-1.27 -3.06917,-2.56646 -5.50334,-3.36021 -2.1881,-0.60854 -4.32858,-0.89958 -6.42937,-0.47625 z m 89.13813,1.85208 c -2.72521,1.82563 -5.31813,3.04271 -8.09625,3.51896 1.40229,2.24896 4.445,3.70417 6.53521,4.28625 2.46062,0.66146 4.78896,0.635 6.45583,0.18521 1.64042,-0.50271 2.32834,-1.21708 2.51354,-1.87854 0.15875,-0.66146 -0.0529,-1.64042 -1.24354,-2.88396 -2.03729,-1.64042 -4.02167,-2.75167 -6.16479,-3.22792 z m -14.20813,9.23396 c 2.61938,0.89959 4.92125,2.72521 5.50334,5.50334 0.58208,2.77812 -0.79375,5.3975 -2.83105,7.27604 -2.01083,1.87854 -4.81541,3.25437 -8.04333,3.94229 -3.25438,0.68792 -6.35,0.55563 -8.96938,-0.34396 -2.64583,-0.92604 -4.9477,-2.75166 -5.52979,-5.52979 -0.58208,-2.75167 0.79375,-5.37104 2.83104,-7.27604 2.0373,-1.87854 4.81542,-3.25438 8.04334,-3.94229 2.93687,-0.60855 6.24417,-0.58209 8.99583,0.37041 z m -7.99042,4.28625 c -2.48708,0.52917 -4.57729,1.61396 -5.82083,2.77813 -1.24354,1.19062 -1.53458,2.14312 -1.40229,2.80458 0.15875,0.68792 0.79375,1.42875 2.40771,2.01084 1.61396,0.55562 3.96875,0.71437 6.45583,0.1852 2.46063,-0.52916 4.55084,-1.61395 5.82084,-2.77812 1.21708,-1.16417 1.50812,-2.11667 1.37583,-2.80458 -0.13229,-0.66146 -0.79375,-1.42875 -2.40771,-2.01084 -2.14312,-0.60854 -4.31271,-0.60854 -6.42938,-0.18521 z m -53.39291,7.14375 c -1.69334,0.26459 -2.46063,0.89959 -2.72521,1.53459 -0.26459,0.635 -0.15875,1.61396 0.84666,3.01625 1.03188,1.37583 2.88396,2.80458 5.2123,3.78354 2.38125,0.9525 4.68312,1.21708 6.40291,0.97896 1.66688,-0.26459 2.46063,-0.89959 2.72521,-1.53459 0.23813,-0.635 0.13229,-1.61395 -0.87312,-3.01625 -1.03188,-1.37583 -2.8575,-2.80458 -5.2123,-3.78354 -2.15635,-0.74083 -4.26773,-1.24354 -6.37645,-0.97896 z m 102.63188,9.12813 c -1.71979,0.0265 -4.89479,0.26458 -5.42396,2.16958 -0.0265,3.30729 4.23333,5.23875 6.77333,5.95313 h 4.70959 v -6.69396 c -1.93146,-0.89958 -4.02167,-1.37583 -6.05896,-1.42875 z m -85.67209,0.21167 c -1.13771,2.61937 -4.31271,4.3127 -6.53521,4.68312 -0.79375,0.10583 -1.61396,0.15875 -2.46063,0.13229 -0.5027,1.61396 1.48167,2.72521 2.56646,3.09563 h 6.6675 c 2.27542,-0.52917 4.15396,-1.5875 5.31813,-2.64584 1.24354,-1.19062 1.56104,-2.14312 1.40229,-2.80458 -0.13229,-0.68792 -0.79375,-1.42875 -2.40771,-2.01083 -1.64042,-0.42334 -3.01625,-0.635 -4.55083,-0.44979 z"
           fill="#ffffff"
           fill-opacity="1"
           id="path862"
           style="fill:url(#linearGradient1377);fill-opacity:1.0;stroke-width:0.264583" />
        <path
           d="m -168.42162,-386.9487 c -16.49253,0.09 -32.67974,4.14814 -43.65625,10.43517 l -1.62851,0.54504 c 5.16678,15.41648 12.74313,26.11094 21.41485,35.02448 l -0.45509,17.85144 17.06563,8.05312 c -5.02708,15.60645 -9.13209,34.10267 -13.33632,52.29648 h 50.56849 c -2.72733,-12.46981 -5.42819,-25.00153 -8.50821,-36.703 6.29021,7.43823 12.30577,16.30627 17.74376,27.59948 l 4.45611,-2.14153 c -5.97112,-12.40102 -12.6836,-22.05038 -19.66172,-30.06355 l 8.23516,-6.42408 -12.55977,-27.61642 12.7582,-8.92968 c -5.01729,-9.38133 -9.90758,-18.86638 -19.12408,-24.51523 -8.60161,5.28981 -13.75833,15.00505 -19.10821,24.47395 l -7.73112,9.1784 c -7.64382,-6.79186 -14.54547,-14.11287 -20.13295,-23.95326 19.2839,-14.68887 52.00307,-18.19407 79.46629,-11.47683 -12.23063,-9.77847 -29.17402,-13.72393 -45.80626,-13.63345 z"
           fill="#ffffff"
           fill-opacity="1"
           id="path994"
           style="fill:url(#linearGradient1377);fill-opacity:1.0;stroke-width:0.264583" />
        <path
           d="m -323.56932,-384.15898 c -1.32292,0.3175 -2.75167,0.89959 -4.33917,1.69334 -3.175,1.5875 -7.06437,4.04812 -11.13896,6.90562 -7.06437,4.94771 -14.68437,11.04636 -19.84375,15.86177 l 10.53042,5.26521 5.26521,10.53041 c 4.81541,-5.15937 10.90083,-12.77937 15.84854,-19.84374 2.8575,-4.06136 5.31812,-7.95073 6.93208,-11.15219 0.79375,-1.5875 1.37584,-2.98979 1.66688,-4.31271 0.3175,-1.32291 0.50271,-2.88396 -0.76729,-4.15396 -1.27,-1.2065 -2.64584,-1.12448 -4.15396,-0.79375 z m -3.91584,8.83709 c 1.29646,1.24618 1.48167,3.20146 1.00542,4.94771 -0.47625,1.74625 -1.61396,3.51895 -3.41312,5.33135 l -11.16542,11.16542 -7.83167,-7.85813 11.16542,-11.15219 c 1.79917,-1.79916 3.57187,-2.92629 5.31812,-3.41312 1.61396,-0.45244 3.78355,-0.11642 4.92125,0.97896 z m -69.7177,11.70781 -5.63563,5.60917 12.065,1.32291 v -6.93208 z m 34.36937,6.6675 -11.50937,5.76792 -40.48126,52.94312 3.62479,3.65125 25.79688,-25.79688 2.98979,2.98979 c -8.59895,8.59896 -17.19791,17.22438 -25.79687,25.82334 l 3.65125,3.59833 52.94312,-40.48125 5.76792,-11.50938 -5.66208,-11.32416 z m -67.88944,0.10583 1.95792,5.87375 32.01194,22.09271 17.06562,-22.30437 z m 10.08062,16.61583 -3.46604,3.4925 6.45319,6.42938 4.65667,-4.63021 z m 69.02715,17.11854 -22.30437,17.06563 22.09271,32.01458 5.87375,1.93146 z m -50.50896,1.27 -29.3661,2.40771 -5.97958,5.97958 21.79902,9.36625 z m 56.11813,10.90084 1.21708,10.9802 4.52438,-4.55083 v -6.42937 z m -34.95146,10.26583 -17.72708,13.54667 9.33979,21.80166 5.97958,-5.97958 z m -36.69771,5.60917 -3.4634,3.46604 9.91923,9.89541 3.46605,-3.43958 z m 49.79459,5.2652 -4.63021,4.65667 6.42937,6.42938 3.4925,-3.46605 z"
           fill="#ffffff"
           fill-opacity="1"
           id="path1038"
           style="fill:url(#linearGradient1377);fill-opacity:1.0;stroke-width:0.264583" />
        <path
           d="m -86.758084,-388.05179 c -30.289496,-0.15187 -37.034256,48.93468 5.44062,56.12447 -7.8052,0.14129 -14.65315,2.14577 -24.275516,6.87123 -25.99875,12.76588 -20.7428,54.21365 5.770826,49.72473 9.12283,-1.54464 13.54931,-13.31516 0.23151,-17.29714 4.36959,7.83431 -7.399866,12.46188 -11.087626,0.51276 -2.97974,-9.65464 5.59462,-19.82099 13.882156,-22.48958 8.06979,-2.5982 14.61664,-2.87337 21.820187,-1.54622 -9.679777,9.06118 -14.961397,21.2897 -11.211987,32.70885 11.779783,35.87617 50.838635,21.83341 43.085815,-1.778 -2.73738,-8.33596 -10.95587,-12.30445 -17.99167,-2.68685 9.30381,-2.34262 13.34823,10.25261 4.81224,13.05507 -6.97309,2.28997 -15.931089,-3.57902 -17.470964,-10.93867 -2.069042,-9.89276 5.230812,-20.4245 14.493874,-25.20156 5.8674,9.35832 10.26901,12.87992 22.01863,19.09921 22.71263,12.02161 56.34487,-9.66787 38.07513007,-29.24439 -5.98645997,-6.41456 -14.43937007,-7.94279 -17.85938007,3.47239 7.9872501,-5.31548 16.07291007,7.09084 8.9627601,12.58438 -5.8076001,4.48733 -16.2726601,5.0628 -22.8697901,1.45521 -8.14837,-4.45611 -14.23194,-10.00072 -18.57057,-17.60326 15.09977,3.62215 31.63993,-0.28178 37.83542,-11.99674 12.09675007,-22.87322 -1.86426,-40.34022 -15.6435,-40.58046 -5.39168,-0.0942 -10.75637,2.44395 -14.51901,8.33437 -4.72281,7.39405 -2.59688,16.28061 9.30196,15.64323 -7.70202,-5.72241 -0.50271,-16.83359 7.06888,-11.997 6.18542,3.95075 5.95153,13.72658 2.57968,20.44699 -4.01241,7.99836 -16.02661,13.42443 -25.15182,6.52383 -0.79587,-1.51077 -1.47188,-3.09112 -2.05846,-4.72096 2.37861,-1.71714 3.93541,-4.50532 3.93541,-7.63984 0,-4.70217 -3.50625,-8.636 -8.02878,-9.31809 -2.58312,-12.47087 -6.17537,-24.51312 -22.448307,-29.7905 -3.608917,-1.17052 -6.994788,-1.71238 -10.128248,-1.72773 z m 31.179555,36.35507 c 2.50375,0 4.48125,1.9775 4.48125,4.48151 0,2.50375 -1.97723,4.48125 -4.48098,4.48125 -2.50375,0 -4.47305,-1.9775 -4.47305,-4.48152 0,-2.50374 1.9693,-4.48124 4.47305,-4.48124 z m -17.305337,2.77812 c 2.503752,0 4.481245,1.9775 4.481245,4.48151 0,2.50376 -1.977493,4.48125 -4.48151,4.48125 -2.503752,0 -4.481248,-1.97749 -4.481248,-4.48151 0,-2.50375 1.977496,-4.48125 4.481513,-4.48125 z"
           fill="#ffffff"
           fill-opacity="1"
           id="path1082"
           style="fill:url(#linearGradient1377);fill-opacity:1.0;stroke-width:0.264583" />
        <path
           d="m 304.16732,-385.5763 c -12.65581,7.97639 -17.34582,18.39489 -22.35835,30.42549 -5.11043,12.26449 -10.48491,26.09056 -24.68695,38.82919 1.60999,2.87999 5.24034,5.67002 10.44178,8.04174 2.85115,-2.47041 5.71183,-5.23927 8.43095,-8.01661 l -8.61695,1.7235 -0.93451,-4.67042 c 5.978,-1.40441 12.32324,-2.46486 17.83054,-3.56632 0.39687,-3.24062 0.98795,-5.88381 1.94151,-8.74316 10.45898,-2.38945 21.97259,-6.5958 31.49521,-6.69502 13.07518,1.18851 21.77521,3.91848 31.60977,6.72756 0.75063,2.93026 1.34541,6.08727 1.65841,8.67701 5.68537,0.76518 11.879,2.37596 17.99908,3.59993 l -0.93451,4.67042 -8.61695,-1.7235 c 2.71912,2.77734 5.5798,5.5462 8.43095,8.01688 5.20144,-2.37199 8.83179,-5.16202 10.44178,-8.04201 -14.20204,-12.73837 -19.57652,-26.5647 -24.68695,-38.82919 -5.01253,-12.0306 -9.70227,-22.4491 -22.35809,-30.42549 -2.89719,4.65269 -7.9793,11.68135 -13.54349,11.78268 -6.43784,-0.76914 -10.45289,-6.72517 -13.54349,-11.78268 z m -8.94635,12.57643 h 4.7625 v 4.45559 l 7.73483,4.21878 c 2.2807,-3.46895 5.83062,-5.76395 9.99225,-5.76395 4.16163,0 7.71155,2.295 9.99225,5.76395 l 7.73483,-4.21878 v -4.45559 h 4.7625 v 3.96875 h 3.96875 v 4.7625 h -6.62516 l -7.84675,4.28043 c 0.72125,2.75114 0.89694,5.30649 0.47175,7.9084 l 13.54905,7.39034 h 5.74278 v 4.7625 h -3.96875 v 3.96875 h -4.7625 v -4.9366 l -12.02558,-6.55928 c -2.15212,4.43441 -6.16108,7.52713 -10.99317,7.52713 -4.83208,0 -8.84105,-3.09272 -10.99317,-7.5274 l -12.02558,6.55982 v 4.93659 h -4.7625 v -3.96875 h -3.96875 v -4.7625 h 5.74278 l 13.54931,-7.39034 c -0.42862,-2.65191 -0.2159,-5.52344 0.47149,-7.90839 l -7.84701,-4.28043 h -6.62491 v -4.7625 h 3.96876 z m 22.48958,7.67292 c -4.11506,0 -7.9375,4.35028 -7.9375,10.31875 0,5.96847 3.82244,10.31875 7.9375,10.31875 4.11507,0 7.9375,-4.35028 7.9375,-10.31875 0,-5.96847 -3.82243,-10.31875 -7.9375,-10.31875 z m -6.61458,6.08542 h 4.7625 v 4.23333 h -4.7625 z m 8.46666,0 h 4.7625 v 4.23333 h -4.7625 z m -6.08541,6.08541 h 8.46666 v 4.7625 h -8.46666 z m -23.46114,25.47276 c -0.32544,1.19803 -0.58129,2.53365 -0.7792,3.9714 20.5785,-4.36192 35.80739,-4.45823 56.78938,-0.0228 -0.19077,-1.34911 -0.42228,-2.67626 -0.7075,-3.97272 -21.56962,-7.62688 -33.70447,-7.58243 -55.30268,0.0241 z m -1.20703,8.84291 c -0.11218,2.50295 -0.0886,5.20673 0.0468,8.02216 1.25756,0.0103 2.47253,0.008 3.65839,-0.003 1.74361,-3.42851 14.23459,-6.3212 20.00066,-1.69179 8.20843,-1.59358 14.21818,-4.32329 20.16998,-8.26161 -15.03257,-2.69002 -32.16407,0.26114 -43.87586,1.9341 z m 25.63257,10.68731 c -0.73025,7.43744 -5.83935,12.4116 -13.6644,12.4116 -4.6064,0 -7.42078,-4.05817 -8.22537,-10.32404 -1.09988,0.0122 -2.21668,0.0185 -3.37027,0.0114 0.86202,8.40238 2.38946,17.40508 4.02405,24.82056 3.39461,-0.28416 8.03725,-2.08597 12.23593,-4.41854 4.01584,-2.23097 7.71631,-4.93474 9.80466,-6.80482 -1.88648,-0.16271 -3.742,-0.49821 -5.55942,-0.98425 l 1.23084,-4.60031 c 4.42198,1.18322 8.84846,1.33509 13.5554,0.008 l 1.29169,4.58391 a 29.281437,29.281437 0 0 1 -5.57794,1.00304 c 2.09047,1.86955 5.78485,4.56777 9.79275,6.7945 4.21323,2.3405 8.87413,4.14761 12.27138,4.42251 2.77548,-12.07347 5.03661,-25.54526 4.26932,-37.62375 l -5.79755,-0.82815 c -4.82442,2.64084 -15.98983,9.33321 -26.28107,11.52846 z m 36.94589,-9.75095 c 0.11774,2.33045 0.14103,4.6863 0.0677,7.05855 2.00871,2.38178 4.32435,4.74477 6.94372,7.09401 -0.80221,-0.44873 -1.70921,-0.72126 -2.69134,-0.72126 -4.71329,0.54478 -6.67809,4.83659 -6.71724,8.73125 0.15107,4.23201 2.61726,8.63918 6.71724,8.73125 0.45508,0 0.89297,-0.0609 1.31313,-0.16801 1.397,5.57742 3.58537,9.61523 8.02428,13.06116 -5.66737,4.13041 -16.8111,4.5257 -22.76078,3.8444 a 103.22269,103.22269 0 0 1 -4.3061,4.06982 c 12.37404,1.54516 29.16661,1.61739 33.62326,-9.22814 -5.21997,-3.02366 -8.80269,-8.04968 -9.87399,-12.39573 7.22683,1.59623 13.28738,-2.61091 13.39771,-9.18898 -9.01356,-2.9591 -19.31459,-16.90449 -23.73763,-20.88832 z m -67.42907,0.0151 c -7.81393,8.44708 -15.88902,15.69085 -25.01873,21.77732 5.34035,5.81872 14.14595,6.42885 19.89534,4.85722 -7.00008,10.79712 -12.183,15.4014 -21.52914,21.63234 13.02887,3.71131 28.63929,6.2992 40.21429,3.48853 a 102.27998,102.27998 0 0 1 -4.22276,-3.98172 c -8.38067,1.04775 -17.40323,0.47969 -25.20526,-1.21787 9.90679,-7.72504 14.02926,-15.64614 17.75036,-23.08226 a 193.22124,193.22124 0 0 1 -0.67204,-4.6519 l -2.3913,1.19592 c -6.1894,3.09456 -12.04516,3.49567 -15.80092,2.0394 7.08475,-4.98607 12.78361,-10.00733 17.0725,-15.11485 -0.12091,-2.38998 -0.15213,-4.70879 -0.0918,-6.94213 z m 54.82273,5.21414 3.36709,3.36762 c -1.69413,1.69439 -3.75576,2.80881 -5.91688,3.54277 v 4.46669 h -8.46666 v -3.10779 c -1.64174,0.0561 -3.10939,0.0291 -4.23334,0.0291 v -4.7625 c 4.23334,0 12.13909,-0.42519 15.24979,-3.5359 z m 21.66488,10.7016 c 2.88899,2.44105 6.10394,4.86939 9.64989,7.29007 -1.65894,2.96598 -5.73802,2.72917 -8.08567,2.02353 0.80354,-3.07843 0.13229,-7.00246 -1.56422,-9.31333 z m -4.73842,2.26298 c 1.48273,0.50589 1.94019,2.63181 1.95501,3.96875 -0.1151,1.07421 -0.40931,3.93436 -1.95501,3.96875 -1.48246,-0.50588 -1.94019,-2.63207 -1.95474,-3.96875 0.11509,-1.07421 0.40931,-3.93435 1.95474,-3.96875 z m -37.99708,12.72937 c -1.65867,2.27066 -3.74041,4.40161 -6.05367,6.3164 2.36935,-0.8509 4.1328,-1.3335 6.05976,-1.32847 1.93436,0.005 3.69543,0.49768 6.07165,1.34858 -2.32304,-1.91982 -4.41325,-4.05792 -6.07774,-6.33651 z m 8.93498,8.50847 -1.30228,3.48192 c -3.22712,-1.2065 -5.08714,-1.8706 -6.46218,-2.12116 l 8.66351,12.99501 c 3.91504,-2.59901 7.33372,-5.55414 10.60292,-8.75692 -4.41325,-1.44489 -8.20103,-3.29142 -11.50197,-5.59858 z m -17.87525,0.004 c -3.60892,2.33124 -7.79965,4.60269 -11.49615,5.59514 3.46816,3.34248 6.80191,6.26084 10.60239,8.75692 l 8.66986,-13.0048 c -1.37213,0.2413 -3.22341,0.9009 -6.45821,2.12725 z"
           fill="#ffffff"
           fill-opacity="1"
           id="path1104"
           style="fill:url(#linearGradient1377);fill-opacity:1.0;stroke-width:0.264583" />
        <path
           d="m -531.85117,-351.28564 a 18.693606,18.693606 0 0 0 -1.65683,-0.60589 c -0.41513,-0.12595 -0.84137,-0.2466 -1.28402,-0.34449 a 16.532225,16.532225 0 0 0 -1.34858,-0.2413 12.691269,12.691269 0 0 0 -1.35969,-0.10081 h -0.66437 c -0.21855,0 -0.43445,0.0251 -0.64479,0.045 a 9.4223417,9.4223417 0 0 0 -1.19433,0.19606 8.1608083,8.1608083 0 0 0 -1.02314,0.30295 c -0.31115,0.10371 -0.5805,0.23812 -0.81863,0.34184 -0.23812,0.10371 -0.4318,0.22701 -0.5916,0.31961 l -0.4879,0.31115 0.56092,-0.11774 c 0.17939,-0.0307 0.39793,-0.0561 0.64188,-0.0897 0.24395,-0.0336 0.52414,-0.0421 0.84111,-0.0307 a 7.2442917,7.2442917 0 0 1 0.95594,0.0672 8.1076271,8.1076271 0 0 1 1.03188,0.20453 c 0.17356,0.0476 0.3503,0.0926 0.52678,0.15716 0.17674,0.0643 0.35057,0.12039 0.52705,0.19315 a 10.571956,10.571956 0 0 1 1.02897,0.47678 c 0.33337,0.18229 0.66145,0.37306 0.96996,0.58023 0.30824,0.20769 0.56091,0.38417 0.81306,0.58049 a 9.3411146,9.3411146 0 0 1 3.17633,-2.24552 z m 76.00156,10.46242 a 1.9624146,1.9624146 0 0 1 -1.96241,1.96241 h -27.60557 v -4.48548 h 29.56798 z m -83.88191,3.10885 c -10.79051,7.15169 -20.42875,29.913 -19.36618,45.11066 h 26.07204 c 0,0 -4.73789,-18.88701 1.76609,-25.10498 0.10107,-0.0953 0.20744,-0.18521 0.31697,-0.28046 2.90143,-5.15541 2.95752,-9.93828 0.0979,-13.92476 -2.54264,-3.55203 -6.56272,-5.40226 -8.88682,-5.8002 z m -3.44832,36.37756 a 3.3641771,3.3641771 0 1 1 -3.36418,-3.36391 3.3641771,3.3641771 0 0 1 3.36418,3.36418 z m 104.73717,-55.71569 a 0.74295,0.74295 0 0 1 0.97287,0.70909 v 8.51164 h -47.93932 v -6.70877 h 39.18373 z m -94.75709,17.10108 h -0.0421 a 19.727862,19.727862 0 0 1 6.0415,5.42184 c 3.79016,5.27632 3.38084,10.69525 1.87563,14.97065 1.42399,0.0587 2.6633,0.44847 3.23506,1.16893 a 14.748933,14.748933 0 0 0 11.60622,5.64886 c 6.14812,0 11.96234,-3.8743 12.82885,-10.981 a 6.2489292,6.2489292 0 0 0 4.80219,-4.38733 l 2.95195,-10.13751 v -18.22237 h -34.37599 v 1.91479 h -2.92391 v 6.83762 c -7.28901,0.014 -6.01054,7.76552 -6.01054,7.76552 z m 34.48527,-10.19042 a 2.2428729,2.2428729 0 0 1 -2.24261,2.2426 h -14.70131 a 2.2428729,2.2428729 0 0 1 0,-4.48548 h 14.70131 a 2.2428729,2.2428729 0 0 1 2.24261,2.24288 z m 0,6.44789 a 2.2428729,2.2428729 0 0 1 -2.24261,2.24261 h -14.70131 a 2.2428729,2.2428729 0 0 1 0,-4.48549 h 14.70131 a 2.2428729,2.2428729 0 0 1 2.24261,2.24288 z m -2.24261,8.55054 h -14.70131 a 2.2428729,2.2428729 0 1 1 0,-4.48548 h 14.70131 a 2.2428729,2.2428729 0 0 1 0,4.48548 z m -18.80552,11.49403 c 0,-3.73698 2.24261,-4.05369 5.4946,-3.95553 0.0701,0.3392 0.14869,0.68951 0.24394,1.04855 0.11483,0.41751 0.23813,0.84084 0.39238,1.27 0.15425,0.42862 0.32544,0.84084 0.51329,1.27 a 12.716404,12.716404 0 0 0 0.63897,1.20544 c 0.11219,0.19315 0.23284,0.37835 0.35878,0.56065 0.1262,0.18204 0.25241,0.35322 0.38153,0.52123 a 9.4112292,9.4112292 0 0 0 0.80168,0.90858 8.143875,8.143875 0 0 0 0.80169,0.70644 c 0.25241,0.20743 0.51038,0.36433 0.72337,0.51012 0.21299,0.14578 0.42334,0.24659 0.58579,0.33072 l 0.5244,0.24951 -0.39819,-0.41196 c -0.12039,-0.13467 -0.26062,-0.30559 -0.41752,-0.49636 a 4.7548271,4.7548271 0 0 1 -0.46566,-0.68395 7.235825,7.235825 0 0 1 -0.45112,-0.84111 8.1047167,8.1047167 0 0 1 -0.37571,-0.98398 c -0.0532,-0.17383 -0.10662,-0.34766 -0.14578,-0.5297 -0.0392,-0.18256 -0.0871,-0.36168 -0.11774,-0.56091 a 10.566135,10.566135 0 0 1 -0.14288,-1.12131 11.636375,11.636375 0 0 1 -0.0254,-1.1213 c 0.0111,-0.3646 0.0336,-0.7374 0.0672,-1.09062 0.0225,-0.21034 0.0476,-0.41195 0.0759,-0.61118 h 0.30824 c 5.17525,0 9.36916,-1.27 9.36916,3.82958 a 9.3706162,9.3706162 0 0 1 -18.74123,-0.006 z"
           fill="#ffffff"
           fill-opacity="1"
           id="path1126"
           style="fill:url(#linearGradient1377);fill-opacity:1.0;stroke-width:0.264583" />
        <path
           d="m 62.220939,-382.00428 c -7.46522,0.022 -15.49665,0.77391 -24.07708,2.32305 52.86957,-3.86133 79.932211,23.29285 94.216541,62.51628 0,-37.91903 -24.51894,-64.97373 -70.139461,-64.83959 z m -0.70273,8.89635 c -15.00267,5.91979 -25.77227,21.48258 -25.77227,39.91081 0,12.96618 5.33215,24.511 13.71732,32.27917 5.99017,2.27224 12.31979,2.88502 18.89284,2.53021 -6.93526,-25.4254 -2.25478,-49.04581 8.59896,-71.70208 -4.90379,-1.72244 -10.04359,-2.74691 -15.43632,-3.01811 z m -11.07123,0.47149 c -11.46122,1.50442 -23.98448,6.164 -37.70312,14.42773 6.61114,25.69184 14.96086,41.02047 24.54804,49.73373 -4.11639,-7.21254 -6.49023,-15.68185 -6.49023,-24.72214 0,-16.38564 7.78457,-30.91391 19.64531,-39.43932 z m 35.49544,6.61459 c 0.41064,1.65893 0.77259,3.32105 1.09961,4.9858 -0.4699,-0.0934 -0.95779,-0.14075 -1.45521,-0.14075 -4.09733,0 -7.41627,3.32052 -7.41627,7.41627 0,4.09654 3.31894,7.41706 7.41627,7.41706 1.14565,0 2.23097,-0.25585 3.19987,-0.71966 0.86255,16.46369 -2.54926,32.7615 -10.85585,47.58372 8.62462,-1.42346 17.57363,-3.87614 26.664711,-5.92825 5.94334,-7.43083 9.54987,-17.12754 9.54987,-27.78972 0,-2.12196 -0.14631,-4.20687 -0.42174,-6.24258 -8.27352,-11.752 -17.467801,-20.82086 -27.781261,-26.58216 z M 6.0713292,-353.1975 c 4.8035098,80.27274 61.0486298,85.53398 125.5283908,49.51757 -49.340831,1.16628 -99.796341,49.89221 -125.5283908,-49.51863 z m 112.9770908,21.89427 c -0.33073,8.99398 -3.00091,17.3654 -7.39193,24.41575 6.34788,-1.21576 12.73704,-2.0619 19.10821,-2.06719 -3.68406,-8.09228 -7.57661,-15.5702 -11.71628,-22.34856 z m 10.98814,34.34556 c -33.617961,20.9222 -70.734771,29.53545 -111.397521,10.3521 34.46092,30.65356 90.516611,21.79452 111.397521,-10.35183 z"
           fill="#ffffff"
           fill-opacity="1"
           id="path1346"
           style="fill:url(#linearGradient1377);fill-opacity:1.0;stroke-width:0.264583" />
        <path
           d="m 136.79244,-385.54403 c -1.53353,-0.037 -3.03821,0.74612 -3.8563,2.17276 -1.18983,2.07433 -0.47625,4.72281 1.59438,5.91476 1.27105,0.7321 2.75695,0.74215 3.9915,0.16272 l 18.1393,10.41797 -7.88379,13.74695 7.54328,4.36298 c 1.68645,-13.08894 7.39378,-23.86118 18.18375,-31.70687 l -7.54327,-4.36351 -7.83961,13.67102 -18.12977,-10.41188 c -0.11642,-1.36684 -0.87578,-2.65642 -2.15239,-3.39143 -0.64717,-0.37253 -1.35017,-0.55907 -2.04708,-0.57573 z m 40.50585,18.95263 -10.02559,0.16987 66.53847,38.29579 -2.46644,4.28572 -67.05864,-38.59477 5.26256,9.29613 c 1.03611,0.49557 7.90787,3.80788 15.81547,8.95826 8.12667,5.29299 16.93915,11.90546 19.6842,19.76517 1.20835,0.60061 8.3312,4.09999 18.40971,7.34589 10.04358,3.23427 22.24828,5.72929 31.72671,4.12221 -3.43746,-9.39456 -11.80041,-18.56052 -19.69981,-25.39868 -7.32526,-6.34073 -13.79537,-10.49231 -15.64137,-11.64113 -8.17827,1.58485 -18.30652,-2.82046 -26.95046,-7.28398 -8.36877,-4.32144 -14.63013,-8.64923 -15.59454,-9.32074 z m -7.14163,19.28813 c 1.48775,4.61248 2.74003,10.47062 3.83911,17.08943 v 20.44886 h 4.94426 v -11.14425 c 3.88197,-7.55121 10.83416,-0.83 13.41438,14.16314 v 42.59871 h 4.94453 v -42.00313 c 3.33904,-3.48933 7.38452,0.97896 10.31214,8.53017 v 9.30671 h 4.94506 v -6.80164 c 4.513,-5.48402 12.28884,-1.50495 15.85647,12.99157 v 17.69745 h 4.94454 v -17.74561 c 4.65005,-15.3789 13.00506,-22.32606 19.68341,-25.47937 -10.23938,0.99642 -21.62307,-1.66052 -31.09833,-4.71223 -11.36914,-3.6613 -20.02895,-8.05656 -20.02895,-8.05656 l -0.98425,-0.49927 -0.28522,-1.06548 c -1.44463,-5.38903 -9.78641,-12.71666 -17.97844,-18.05199 -4.83553,-3.14986 -9.47949,-5.69118 -12.50844,-7.26625 z m 6.31137,48.01658 c -3.08054,0 -5.57741,2.49714 -5.57741,5.57741 0,3.08081 2.49687,5.57742 5.57741,5.57742 3.08055,0 5.57742,-2.49661 5.57742,-5.57742 0,-3.08027 -2.49687,-5.57741 -5.57742,-5.57741 z m 75.07657,1.99231 c 0,0 -5.57741,13.93481 -5.57741,17.01535 0,3.08055 2.49687,5.57742 5.57741,5.57742 3.08055,0 5.57742,-2.49687 5.57742,-5.57742 0,-3.08054 -5.57742,-17.01535 -5.57742,-17.01535 z m -41.46073,15.01986 c -3.08054,0 -5.57794,2.49661 -5.57794,5.57742 0,3.08028 2.49766,5.57742 5.57794,5.57742 3.08055,0 5.57742,-2.49714 5.57742,-5.57742 0,-3.08081 -2.49687,-5.57742 -5.57742,-5.57742 z"
           fill="#ffffff"
           fill-opacity="1"
           id="path1368"
           style="fill:url(#linearGradient1377);fill-opacity:1.0;stroke-width:0.264583" />
      </g>
      <g
         id="g1482"
         style="fill:url(#linearGradient1377);fill-opacity:1.0">
        <path
           d="m 273.33196,-513.20739 9.10167,34.95676 23.30979,1.27 -0.79375,-4.55084 -0.50271,-2.96332 32.62313,1.95791 1.29646,7.35541 20.08187,1.11125 -8.59896,-32.97237 z m -4.97946,0.42335 c -8.06979,3.14854 -14.73729,14.04937 -13.17625,19.92841 l 0.87313,3.12209 c 0.15875,-0.47625 0.34395,-0.92605 0.55562,-1.4023 2.61938,-6.27591 7.01146,-12.38779 13.30854,-15.58925 z m 2.8575,11.00666 c -4.41854,2.64584 -7.91104,7.43479 -10.05417,12.54654 -1.37583,3.3073 -2.11666,6.77334 -2.30187,9.6573 l 4.61962,16.80103 c 3.38667,-5.60916 7.98777,-11.19187 14.27692,-13.86416 z m 38.95196,22.4155 5.34458,31.06208 23.01876,1.13771 -5.47688,-30.82395 z m 12.3825,5.60916 a 6.6913125,5.3789792 24.87 0 1 0.635,0 6.6913125,5.3789792 24.87 0 1 7.19667,5.92667 6.6913125,5.3789792 24.87 0 1 -3.4925,5.08 l 5.50333,9.92188 -12.88521,-0.58209 2.88396,-9.55146 a 6.6913125,5.3789792 24.87 0 1 -4.89479,-5.45041 6.6913125,5.3789792 24.87 0 1 5.05354,-5.34459 z m -38.84083,0.34396 3.96875,15.24 21.48416,0.89959 -2.59291,-14.86959 z m -4.73605,1.48167 c -5.76791,2.80458 -10.45633,9.60437 -13.68689,15.71625 l 3.29671,11.98562 c 2.71727,-4.15395 6.34206,-8.67833 14.17373,-13.2027 z m 60.27209,1.56104 2.56646,14.47271 21.61646,0.92604 -3.73063,-14.26104 z m -50.32375,17.01271 8.255,31.64417 76.5175,6.13832 -8.99583,-34.55457 -22.03979,-0.92605 1.5875,8.96938 -32.75542,-1.66688 -1.50813,-8.70479 z m -4.92125,0.71437 c -8.46667,5.13292 -10.50396,9.49855 -13.70277,14.65792 l 5.68589,20.66395 c 0.0794,-0.13229 0.15875,-0.29104 0.23813,-0.42333 2.80458,-5.10645 7.35541,-9.97479 13.52021,-12.83229 z m 7.03791,26.96105 c -4.68312,2.4077 -8.255,6.27062 -10.4775,10.31874 -1.19062,2.14313 -1.93145,4.31271 -2.30187,6.27063 l 3.09562,11.21833 0.42334,0.0529 c -1.00542,-7.3025 3.01625,-16.0073 10.92729,-21.45771 z m 6.95855,8.99582 c -8.62542,4.5773 -12.30313,13.86417 -11.05959,19.28813 l 76.67626,6.48229 c -1.40229,-2.06375 -2.30188,-4.73604 -2.27542,-7.54062 l -5.92667,-2.38125 12.25021,-1.93146 -3.57187,-3.38667 c 1.48166,-1.85208 3.62479,-3.46604 6.58812,-4.68312 z"
           fill="#ffffff"
           fill-opacity="1"
           id="path1170"
           style="fill:url(#linearGradient1377);fill-opacity:1.0;stroke-width:0.264583" />
        <path
           d="m 205.44651,-514.78589 c -28.46281,18.08083 -49.1781,67.45816 -49.76706,125.45324 h 99.26849 c -0.58209,-57.99508 -21.03967,-107.37241 -49.50195,-125.45377 z m -4.98607,43.14295 4.85352,9.59961 4.85299,-9.59908 c 2.64318,0.61542 5.21758,1.72958 7.68958,3.29062 l 1.0996,12.84817 5.31681,-7.57343 c 2.10026,2.14921 4.09575,4.64555 5.97799,7.4496 l -1.66237,9.31043 4.86171,-4.05977 c 6.45319,11.71972 11.12574,27.41083 13.10535,45.18554 -2.65536,-8.50476 -7.02548,-15.97898 -12.60079,-21.78632 l 1.05834,-9.47552 -6.77995,4.42357 c -1.61343,-1.19857 -3.29459,-2.2741 -5.03502,-3.21628 l -0.88503,-10.83998 -6.96224,7.64011 c -1.93411,-0.54874 -3.91372,-0.94721 -5.93646,-1.17422 l -4.10104,-8.7974 -4.10104,8.80587 c -2.15371,0.24236 -4.26509,0.66728 -6.31719,1.27317 l -6.58151,-7.21783 -0.83529,10.28541 c -1.75816,0.94853 -3.45679,2.032 -5.08529,3.24115 l -6.77969,-4.42384 1.06627,9.47579 c -5.57741,5.80761 -9.95309,13.27944 -12.60898,21.78685 1.97961,-17.77682 6.65956,-33.46582 13.11328,-45.18607 l 4.85484,4.05977 -1.66158,-9.31016 c 1.94998,-2.90592 4.0251,-5.47952 6.20924,-7.68086 l 5.09322,7.24271 1.04167,-12.25338 c 2.48708,-1.57771 5.07815,-2.70405 7.73906,-3.32396 z"
           fill="#ffffff"
           fill-opacity="1"
           id="path1192"
           style="fill:url(#linearGradient1377);fill-opacity:1.0;stroke-width:0.264583" />
        <path
           d="m 28.679451,-515.24934 v 62.61523 c 0,5.41867 5.11281,10.67991 12.74127,15.2056 3.04377,-1.60496 6.15421,-2.53047 9.21094,-2.53047 7.67901,0 14.14278,5.37104 16.42878,12.74974 0.49953,0.13097 0.99271,0.22834 1.48828,0.35534 3.6576,-2.62467 6.94664,-3.23242 9.1776,-3.23242 4.64397,0 8.74104,2.56329 11.14558,6.43255 1.13453,0.055 2.30637,0.14023 3.38137,0.14023 1.10517,0 2.25081,-0.0476 3.42371,-0.11536 2.40427,-3.88673 6.505049,-6.45795 11.161709,-6.45795 2.13784,0 5.25198,0.58156 8.72331,2.93529 0.70247,-0.19473 1.40124,-0.41698 2.1082,-0.62018 2.4384,-7.0866 8.77888,-12.17877 16.26394,-12.17877 2.71727,0 5.47952,0.71834 8.20156,1.99231 8.07349,-4.6863 13.54375,-9.89251 13.54375,-14.64257 V -515.2496 H 28.679451 Z m 17.86731,33.41159 c 5.48217,0 9.92188,4.44394 9.92188,9.93033 0,5.48217 -4.43971,9.92188 -9.92188,9.92188 -5.48217,0 -9.92981,-4.43971 -9.92981,-9.92188 0,-5.48216 4.44764,-9.92981 9.92981,-9.92981 z m 91.314589,0 c 5.48217,0 9.92982,4.44394 9.92982,9.93033 5.2e-4,5.48217 -4.44765,9.92188 -9.92982,9.92188 -5.48216,0 -9.92981,-4.43971 -9.92981,-9.92188 0,-5.48216 4.44765,-9.92981 9.92981,-9.92981 z m -93.050259,3.12578 c -2.41088,0 -4.36562,1.95527 -4.36562,4.36562 0,2.41089 1.95474,4.36563 4.36562,4.36563 2.41036,0 4.36563,-1.95474 4.36563,-4.36563 0,-2.41035 -1.95527,-4.36562 -4.36563,-4.36562 z m 91.314069,0 c -2.41036,0 -4.36563,1.95527 -4.36563,4.36562 0,2.41089 1.95527,4.36563 4.36563,4.36563 2.41035,0 4.36562,-1.95474 4.36562,-4.36563 0,-2.41035 -1.95527,-4.36562 -4.36562,-4.36562 z m -63.772519,3.16706 c 8.76696,0 15.875,7.10353 15.875,15.875 0.004,8.76723 -7.10407,15.88294 -15.875,15.88294 -8.76751,0 -15.88374,-7.11571 -15.88374,-15.88294 0,-8.76723 7.1165,-15.875 15.88347,-15.875 z m 39.703369,0 c 8.7675,0 15.875,7.10353 15.875,15.875 0.005,8.76723 -7.10327,15.88294 -15.875,15.88294 -8.76697,0 -15.882939,-7.11571 -15.882939,-15.88294 0,-8.76723 7.115969,-15.875 15.882939,-15.875 z m -42.481759,4.03437 c -4.38601,0 -7.94544,3.5515 -7.94544,7.9375 0,4.38599 3.55943,7.94543 7.94544,7.94543 4.38626,0 7.9375,-3.55944 7.9375,-7.94543 0,-4.386 -3.55124,-7.9375 -7.9375,-7.9375 z m 39.695959,0 c -4.38626,0 -7.9375,3.5515 -7.9375,7.9375 0,4.38599 3.55124,7.94543 7.9375,7.94543 4.386,0 7.94544,-3.55944 7.94544,-7.94543 0,-4.386 -3.55944,-7.9375 -7.94544,-7.9375 z m -58.357819,2.92708 c -0.96044,0 -1.7444,0.78317 -1.7444,1.7444 0,0.96097 0.78369,1.73646 1.74466,1.73646 0.96123,0 1.73673,-0.77576 1.73673,-1.73672 0,-0.96097 -0.77523,-1.74467 -1.73646,-1.74467 z m 91.314589,0 c -0.96097,0 -1.74466,0.78317 -1.74466,1.7444 0,0.96097 0.78369,1.73646 1.74466,1.73646 0.96096,0 1.73646,-0.77576 1.73646,-1.73672 0,-0.96097 -0.77576,-1.74467 -1.73673,-1.74467 z m -62.887759,13.04714 c -2.19339,0 -3.96875,1.77535 -3.96875,3.96875 0,2.19339 1.77536,3.97668 3.96875,3.97668 2.19261,0 3.96875,-1.78329 3.96875,-3.97668 0,-2.1934 -1.77614,-3.96875 -3.96875,-3.96875 z m 39.703379,0 c -2.1926,0 -3.97669,1.77535 -3.97669,3.96875 0,2.19339 1.78409,3.97668 3.97669,3.97668 2.19339,0 3.96875,-1.78329 3.96875,-3.97668 0,-2.1934 -1.77536,-3.96875 -3.96875,-3.96875 z m 14.89974,21.53046 c -6.7691,0 -11.41835,6.15024 -11.41835,12.55978 8.31003,6.80243 13.69218,17.80434 13.69218,30.18684 0,0.79586 -0.0159,1.58961 -0.0415,2.38125 7.7007,-6.59554 12.41955,-15.48871 12.41955,-25.26771 0,-5.45677 -1.47241,-10.62699 -4.10978,-15.28763 -3.80153,-3.24299 -7.39642,-4.57253 -10.54179,-4.57253 z m -83.302469,0.008 c -3.14114,0 -6.74423,1.3216 -10.55026,4.56407 -2.63737,4.66116 -4.10105,9.83985 -4.10105,15.29662 0,9.77476 4.71435,18.66794 12.41055,25.2677 -0.0291,-0.7874 -0.041,-1.58538 -0.041,-2.38125 0,-12.3825 5.39036,-23.38863 13.70012,-30.18736 0.004,-6.4135 -4.64872,-12.55978 -11.41809,-12.55978 z m 27.09492,9.48399 c -2.15477,0 -4.62703,0.92605 -7.23477,3.20808 -1.80763,3.28083 -2.8194,6.92546 -2.8194,10.76536 0,6.8834 3.24115,13.1408 8.52488,17.78476 -0.0212,-0.55456 -0.0333,-1.11125 -0.0333,-1.67005 0,-8.71643 3.69887,-16.46158 9.40064,-21.24948 0,-4.504 -3.19405,-8.8384 -7.83801,-8.8384 z m 29.112099,0 c -4.64343,0 -7.837749,4.33441 -7.837749,8.84714 5.702299,4.7879 9.392709,12.52855 9.392709,21.24922 0,0.5588 -0.004,1.11548 -0.0249,1.67031 5.28294,-4.6482 8.52408,-10.90163 8.52408,-17.78529 0,-3.8391 -1.00753,-7.48427 -2.8194,-10.7651 -2.60747,-2.2815 -5.07524,-3.21998 -7.23424,-3.21601 z"
           fill="#ffffff"
           fill-opacity="1"
           id="path1214"
           style="fill:url(#linearGradient1377);fill-opacity:1.0;stroke-width:0.264583" />
        <path
           d="m -51.89439,-514.39802 c -1.402291,7.10407 1.217084,14.74788 9.022292,22.89175 2.963333,-1.92881 8.360833,-2.89454 13.229167,-2.159 -12.170834,-5.90285 -17.594792,-12.46981 -22.251459,-20.73275 z m -42.230146,1.651 c 3.80206,12.29255 13.73188,27.03512 26.56681,37.48617 -9.54881,-0.60855 -21.07935,-4.02167 -29.32641,-6.69396 6.604,9.31333 16.97831,13.99646 27.34204,17.54187 -6.60665,4.68313 -14.58119,9.44563 -27.3685,10.23938 14.45683,5.08 28.45329,2.35478 34.75037,0.1852 -4.73604,9.23395 -26.64883,17.51541 -32.36118,20.37291 14.0917,1.11125 32.20243,-2.91041 44.188058,-8.70479 2.645833,6.50876 -0.423333,14.07583 -2.672292,20.58459 -0.502708,1.19063 -1.005416,2.35478 -1.508125,3.51895 1.349375,-0.92604 2.672292,-1.85208 3.942292,-2.80457 6.244167,-4.28625 12.647083,-8.44021 15.742708,-15.5575 6.905625,8.255 16.589375,16.43061 28.310415,22.59541 4.60375,5.8473 7.48771,12.96459 9.04875,19.52625 2.19605,-5.05354 3.65125,-10.63625 2.56646,-15.95437 6.48229,-0.9525 9.41917,-7.85813 9.39271,-14.39333 -3.33375,1.64041 -3.99521,1.66687 -8.255,2.16958 0,-2.67229 0.15875,-3.30729 -0.79375,-7.59354 -2.72521,2.2225 -5.55625,2.96333 -8.14917,3.12208 0.55563,-2.01083 0.79375,-5.15938 0.97896,-7.22312 -3.43958,1.87854 -5.08,2.56646 -7.96396,2.8575 -0.10583,-2.88396 -0.0265,-5.29167 -1.08479,-8.04334 -7.83167,5.02709 -12.85875,0.39688 -17.991666,-5.63562 5.238746,-4.49793 25.505836,-5.76792 25.161876,1.87854 3.70417,-1.93147 4.97417,-2.96333 6.24417,-4.20687 2.40771,2.24894 3.54541,5.52979 3.99521,8.30791 2.46062,-2.48708 2.7252,-2.77812 4.52437,-6.29708 1.50813,2.67228 2.32833,4.49792 2.83104,8.09625 2.24896,-1.64042 4.07459,-3.46605 5.23875,-5.66208 1.984378,4.10104 2.196038,4.23333 3.280838,8.73125 4.70958,-3.46605 5.76791,-8.255 6.0325,-12.59418 0.52916,-8.73125 -0.0794,-28.62792 -8.202088,-37.80894 0.449788,9.60437 -3.46604,18.52082 -8.94291,21.35187 -3.33375,1.29645 -25.5323,-19.73792 -36.406673,-24.68562 -6.217708,-2.69875 -12.726458,1.87854 -17.93875,2.46062 -20.002503,-6.11187 -36.785023,-15.44108 -51.173063,-27.16742 z m 70.619936,33.38513 c 3.51896,5.52978 8.51958,9.76312 15.90146,14.55207 -5.13292,0.7673 -17.409583,-1.77271 -20.558125,-6.35 -1.455208,-2.09021 1.878542,-5.63562 4.656665,-8.20207 z m -30.559373,44.0002 c -3.81,1.64042 -7.725833,2.88396 -11.588753,3.78354 -0.635,0.9525 -1.21708,1.87855 -1.7727,2.77813 3.91583,1.40229 8.33437,1.85208 11.66812,0.74083 0.873125,-2.59291 1.455208,-5.10647 1.693333,-7.3025 z m -17.991663,5.05354 -2.69875,0.39688 c -8.4164,9.68374 -16.37771,27.305 -12.7635,40.19021 h 9.55939 c -2.94216,-9.97481 -4.37356,-23.04521 5.90286,-40.58709 z m 2.24896,5.68855 c -1.56105,3.01625 -2.75167,5.84729 -3.65125,8.49312 3.41312,1.77271 7.69937,2.35478 11.85333,2.16958 1.21708,-2.77812 2.59292,-5.76791 3.862915,-8.81062 -4.074585,0.47625 -8.307915,-0.37042 -12.064995,-1.85208 z m 29.474578,1.74625 c -3.175,2.77812 -6.6675,5.37104 -10.292292,7.83166 1.852084,8.99583 8.837084,16.77458 19.552709,25.32063 H -9.03189 c -15.13417,-8.41375 -25.029583,-19.39396 -31.300208,-33.15229 z m -34.395828,11.42998 c -0.66146,3.12209 -0.87313,6.00606 -0.79375,8.7048 9.86895,3.75708 16.53645,3.57187 25.79687,1.08479 -1.905,-2.72521 -3.439584,-5.55625 -4.471459,-8.54604 -8.651871,2.48708 -14.657911,1.50812 -20.531661,-1.24355 z m 28.204578,13.86417 c -10.080625,2.88396 -18.203328,3.4925 -28.442708,0.0794 0.47625,2.75166 1.19063,5.31812 1.98438,7.77875 h 34.422286 c -2.989791,-2.59292 -5.662083,-5.18584 -7.963958,-7.85814 z"
           fill="#ffffff"
           fill-opacity="1"
           id="path1236"
           style="fill:url(#linearGradient1377);fill-opacity:1.0;stroke-width:0.264583" />
        <path
           d="m -198.04759,-514.02999 v 27.12773 h 53.51198 v 4.94507 h -19.37279 v 9.78111 h -4.94401 v -9.78164 h -27.03724 l 11.4763,14.22981 h 47.74141 v 4.94454 h -32.29662 v 9.78164 h -4.94374 v -9.78164 h -10.42643 v 43.27578 h 15.48606 v -11.84011 h -6.3164 v -4.944 h 19.62018 v -8.90588 h -10.02903 v -4.94427 h 25.72225 v 4.94454 h -10.74869 v 8.90481 h 19.38866 v 4.94401 h -8.58229 v 11.84011 h 6.96198 v 4.94453 h -16.8513 l -0.71067,19.5871 -4.94454,-0.18177 0.70273,-19.40533 h -37.5785 v -0.0902 h -0.0582 l -7.5901,24.56497 h 21.12539 l 2.59556,-18.70287 4.89479,0.67813 -2.50507,18.02448 h 76.845324 l -7.590374,-24.56471 h -7.94544 v -52.9749 l 13.708594,-16.99948 v -29.40129 h -17.040754 v 13.87422 h -10.37696 v -13.87449 h -17.23073 v 13.87423 h -10.1944 v -13.87423 h -17.23125 v 13.87423 h -10.18646 v -13.87423 z m 34.13919,82.68229 v 11.84011 h 19.16641 v -11.84011 z"
           fill="#ffffff"
           fill-opacity="1"
           id="path1258"
           style="fill:url(#linearGradient1377);fill-opacity:1.0;stroke-width:0.264583" />
        <path
           d="m -297.555,-514.8441 c -2.33812,0 -4.18385,1.84627 -4.18385,4.1836 0,1.94681 1.28058,3.55257 3.05938,4.0349 l 6.12087,14.65791 c -3.33852,1.9484 -6.10262,5.25198 -7.98248,9.92929 l -6.99347,5.24457 2.9681,3.95234 2.16349,-1.62322 c 8.39312,-5.58587 19.15584,-10.57989 29.13592,-13.22254 l 7.23027,-1.07898 -0.73554,-4.89479 -8.80904,1.31815 c -3.44223,-1.31153 -6.6548,-1.87749 -9.5549,-1.7481 -0.97102,0.0434 -1.90553,0.16404 -2.80458,0.35295 l -6.1087,-14.63252 c 0.42333,-0.65616 0.66992,-1.43826 0.66992,-2.29023 0,-2.33812 -1.83753,-4.18386 -4.17565,-4.18386 z m 20.33906,33.6185 c -4.68683,1.6166 -9.50066,3.68379 -13.98985,5.9944 l 18.09936,43.66418 3.86953,-2.07486 7.48241,-10.2526 -15.46092,-37.33112 z m 44.73945,29.50898 -18.02474,0.80248 -15.07252,20.6375 -0.33073,0.45455 -0.49609,0.27332 -17.28073,9.26835 -7.53269,31.00599 h 91.3474 l -3.96875,-16.85025 -43.80442,-14.46954 1.55416,-4.69635 23.78737,7.85494 -10.17852,-34.28021 z"
           fill="#ffffff"
           fill-opacity="1"
           id="path1280"
           style="fill:url(#linearGradient1377);fill-opacity:1.0;stroke-width:0.264583" />
        <path
           d="m -424.87728,-508.40189 c -9.28767,9.17998 -10.92994,19.55006 -8.79158,31.1777 1.66423,9.04928 5.84174,18.73435 10.81935,28.51335 4.69318,-7.17391 10.87887,-15.03468 18.17052,-20.77429 -5.47687,-4.5413 -10.12322,-9.49615 -13.59085,-14.93493 -4.57465,-7.1755 -7.01252,-15.24264 -6.60744,-23.98183 z m 107.71663,0 c 0.40508,8.73919 -2.03279,16.80633 -6.60744,23.98183 -3.46763,5.43878 -8.11397,10.39363 -13.59085,14.93493 7.29165,5.73961 13.47735,13.60038 18.17053,20.77429 4.9776,-9.779 9.15537,-19.46407 10.81934,-28.51335 2.13836,-11.62764 0.49609,-21.99772 -8.79158,-31.17744 z m -53.85831,33.10466 c -2.30241,0 -4.51406,0.72946 -6.08542,1.93569 v 5.92138 c 1.77271,-0.70062 3.84572,-1.06257 6.08542,-1.06257 2.23969,0 4.31271,0.36195 6.08541,1.0623 v -5.92111 c -1.57136,-1.20623 -3.78301,-1.93569 -6.08541,-1.93569 z m -10.84792,7.95153 c -8.06582,3.06308 -15.88637,9.17045 -22.26892,16.61689 -8.49736,9.91367 -14.30073,22.13081 -15.17438,31.52325 h 37.4433 z m 21.69583,0 v 48.14014 h 37.4433 c -0.87339,-9.39244 -6.67702,-21.60958 -15.17438,-31.52325 -6.38254,-7.44617 -14.2031,-13.55381 -22.26892,-16.61689 z m -40.61407,0.92339 c -7.69858,5.86714 -14.60208,14.87276 -19.50825,22.62346 a 538.17202,538.17202 0 0 0 2.49952,4.64662 c 2.68869,-5.08688 6.1087,-10.08751 10.04173,-14.67591 3.1705,-3.69888 6.69104,-7.13449 10.46612,-10.09518 a 110.13281,110.13281 0 0 1 -3.49912,-2.49899 z m 59.53231,0 a 110.13281,110.13281 0 0 1 -3.49912,2.49899 c 3.77508,2.96069 7.29562,6.3963 10.46613,10.09518 3.93303,4.5884 7.35277,9.58903 10.04173,14.67591 0.84111,-1.54782 1.67719,-3.09695 2.49952,-4.64662 -4.90617,-7.7507 -11.80968,-16.75606 -19.50826,-22.62346 z m -29.76615,2.68208 c -2.01613,0 -3.82297,0.43921 -4.92178,0.98849 -0.86307,0.43153 -1.08559,0.7866 -1.14247,0.8636 0.0569,0.0767 0.2794,0.4318 1.14247,0.86333 1.09881,0.54954 2.90539,0.98875 4.92178,0.98875 2.01612,0 3.82296,-0.43921 4.92178,-0.98875 0.86307,-0.43127 1.08558,-0.78634 1.14247,-0.86333 -0.0569,-0.077 -0.2794,-0.43207 -1.14247,-0.8636 -1.09882,-0.54954 -2.90539,-0.98849 -4.92178,-0.98849 z m 6.06425,1.85209 c 0.0156,0.0212 0.0212,0.0251 0.0212,0 0,-0.0254 -0.006,-0.0212 -0.0212,0 z m -12.1285,0 c -0.0156,-0.0212 -0.0212,-0.0254 -0.0212,0 0,0.0251 0.006,0.0212 0.0212,0 z m -0.0212,5.55201 v 12.79314 c 1.7727,-0.70062 3.84571,-1.06257 6.08541,-1.06257 2.2397,0 4.31271,0.36195 6.08542,1.06257 v -12.79314 c -1.77271,0.70062 -3.84572,1.06257 -6.08542,1.06257 -2.2397,0 -4.31271,-0.36195 -6.08541,-1.06257 z m 6.08541,16.49307 c -2.01612,0 -3.82296,0.43921 -4.92178,0.98848 -0.86307,0.4318 -1.08558,0.78661 -1.14247,0.8636 0.0569,0.077 0.2794,0.4318 1.14247,0.8636 1.09882,0.54928 2.90566,0.98849 4.92178,0.98849 2.01613,0 3.82297,-0.43921 4.92178,-0.98849 0.86307,-0.4318 1.08559,-0.7866 1.14247,-0.8636 -0.0569,-0.077 -0.2794,-0.4318 -1.14247,-0.8636 -1.09881,-0.54927 -2.90565,-0.98848 -4.92178,-0.98848 z m 6.06425,1.85208 c 0.0156,0.0212 0.0212,0.0254 0.0212,0 0,-0.0254 -0.006,-0.0212 -0.0212,0 z m -12.1285,0 c -0.0156,-0.0212 -0.0212,-0.0254 -0.0212,0 0,0.0254 0.006,0.0212 0.0212,0 z m -0.0212,5.55202 v 12.13644 c 1.77271,-0.70088 3.84572,-1.06257 6.08542,-1.06257 2.2397,0 4.31271,0.36169 6.08542,1.06257 v -12.13644 c -1.77271,0.70062 -3.84572,1.06257 -6.08542,1.06257 -2.2397,0 -4.31271,-0.36195 -6.08542,-1.06257 z m 6.08542,15.83637 c -2.01613,0 -3.82297,0.43921 -4.92178,0.98849 -0.86307,0.43153 -1.08559,0.7866 -1.14247,0.8636 0.0569,0.0767 0.2794,0.4318 1.14247,0.8636 1.09881,0.54927 2.90539,0.98848 4.92178,0.98848 2.01612,0 3.82296,-0.43921 4.92178,-0.98848 0.86307,-0.4318 1.08558,-0.78661 1.14247,-0.8636 -0.0569,-0.077 -0.2794,-0.43207 -1.14247,-0.8636 -1.09882,-0.54928 -2.90539,-0.98849 -4.92178,-0.98849 z m 6.06425,1.85209 c 0.0156,0.0212 0.0212,0.0251 0.0212,0 0,-0.0254 -0.006,-0.0212 -0.0212,0 z m -12.1285,0 c -0.0156,-0.0212 -0.0212,-0.0254 -0.0212,0 0,0.0251 0.006,0.0212 0.0212,0 z m -42.3545,0.30744 v 7.9375 h 4.88289 c -0.73555,-1.16998 -1.17872,-2.51883 -1.17872,-3.96875 0,-1.44991 0.44344,-2.79876 1.17872,-3.96875 z m 14.55208,0 c -1.85552,0 -3.49091,0.58314 -4.55797,1.38351 -1.06707,0.8001 -1.52744,1.68963 -1.52744,2.58524 0,0.89562 0.46037,1.78515 1.52744,2.58525 1.06706,0.80036 2.70245,1.3835 4.55797,1.3835 1.85553,0 3.49092,-0.58314 4.55798,-1.3835 1.06707,-0.8001 1.52744,-1.68963 1.52744,-2.58525 0,-0.89561 -0.46037,-1.78514 -1.52744,-2.58524 -1.06706,-0.80037 -2.70245,-1.38351 -4.55798,-1.38351 z m 9.6692,0 c 0.73554,1.16999 1.17872,2.51884 1.17872,3.96875 0,1.44992 -0.44344,2.79877 -1.17872,3.96875 h 13.34955 v -7.9375 z m 35.04538,0 v 7.9375 h 13.34955 c -0.73554,-1.16998 -1.17872,-2.51883 -1.17872,-3.96875 0,-1.44991 0.44345,-2.79876 1.17872,-3.96875 z m 23.01875,0 c -1.85552,0 -3.49091,0.58314 -4.55798,1.38351 -1.06706,0.8001 -1.52744,1.68963 -1.52744,2.58524 0,0.89562 0.46038,1.78515 1.52744,2.58525 1.06707,0.80036 2.70246,1.3835 4.55798,1.3835 1.85552,0 3.49091,-0.58314 4.55798,-1.3835 1.06706,-0.8001 1.52744,-1.68963 1.52744,-2.58525 0,-0.89561 -0.46038,-1.78514 -1.52744,-2.58524 -1.06707,-0.80037 -2.70246,-1.38351 -4.55798,-1.38351 z m 9.6692,0 c 0.73554,1.16999 1.17872,2.51884 1.17872,3.96875 0,1.44992 -0.44345,2.79877 -1.17872,3.96875 h 4.88288 v -7.9375 z m -49.62128,5.24457 v 4.35319 l 6.08542,9.12813 6.08542,-9.12813 v -4.35319 c -1.77271,0.70062 -3.84572,1.06257 -6.08542,1.06257 -2.2397,0 -4.31271,-0.36195 -6.08542,-1.06257 z"
           fill="#ffffff"
           fill-opacity="1"
           id="path1302"
           style="fill:url(#linearGradient1377);fill-opacity:1.0;stroke-width:0.264583" />
        <path
           d="m 436.65926,-514.36891 c -4.25345,0 -8.56589,0.9869 -12.7471,2.70933 -0.5625,1.72641 -1.02579,3.90525 -1.29037,6.28492 -0.34661,3.11943 -0.45773,6.53679 -0.49477,9.74169 8.95985,-0.98002 20.10463,-0.98002 29.06447,0 -0.037,-3.2049 -0.14817,-6.62252 -0.49477,-9.74196 -0.26458,-2.37913 -0.7276,-4.55824 -1.29037,-6.28465 -4.18121,-1.72243 -8.49365,-2.70933 -12.74709,-2.70933 z m 26.60755,5.11493 c 2.46459,1.86637 4.79081,3.93647 6.95378,6.14732 0.40481,-1.75947 1.2409,-3.35915 2.38919,-4.6818 z m -44.9871,0.39422 c -9.17443,5.34988 -17.21035,13.94725 -21.84188,22.84254 -8.75242,16.81057 -10.50132,41.52794 -0.14023,56.8325 7.76128,11.46228 25.61801,15.88664 40.36166,15.88664 14.7439,0 32.60063,-4.42383 40.36139,-15.8869 10.36161,-15.3043 8.61218,-40.02167 -0.14023,-56.83251 -4.63127,-8.89529 -12.6672,-17.49213 -21.84136,-22.84227 0.15293,0.96573 0.27967,1.95475 0.39106,2.9591 0.40269,3.62321 0.50588,7.46046 0.53287,10.91856 4.94903,0.8345 8.74209,2.04444 10.32959,3.63194 8.46667,8.46666 19.98584,35.63805 4.23334,59.26666 -9.96262,14.94367 -57.77071,14.94367 -67.73333,0 -15.7525,-23.62861 -4.23333,-50.8 4.23333,-59.26666 1.5875,-1.5875 5.3803,-2.79744 10.32934,-3.63194 0.0273,-3.4581 0.13044,-7.29535 0.53313,-10.91856 0.11113,-1.00435 0.23813,-1.99337 0.39106,-2.9591 z m -32.42045,1.10543 c -2.33813,0 -4.23334,1.89521 -4.23334,4.23334 a 4.2333333,4.2333333 0 0 0 1.85209,3.49964 v 18.06389 l 4.7625,-3.57187 v -14.49652 a 4.2333333,4.2333333 0 0 0 1.85208,-3.49514 c 0,-2.33813 -1.89521,-4.23334 -4.23333,-4.23334 z m 94.93514,0.97367 c -3.38931,0 -6.08542,2.6961 -6.08542,6.08542 0,3.38931 2.69611,6.08541 6.08542,6.08541 3.38931,0 6.08542,-2.6961 6.08542,-6.08541 0,-3.38932 -2.69611,-6.08542 -6.08542,-6.08542 z m 6.68655,14.60632 c -1.84679,1.45441 -4.16931,2.32701 -6.68602,2.32701 -0.19712,0 -0.39159,-0.007 -0.58579,-0.0177 a 57.300812,57.300812 0 0 1 0.62971,1.15623 l 7.89834,5.92402 z m -63.18832,0.66146 c -4.56591,0.0238 -9.85732,0.99404 -14.08456,4.26508 -7.04692,5.45253 -11.38608,30.36438 -8.8609,38.83105 4.38785,-16.34252 8.46481,-32.81363 28.55383,-42.67042 a 35.307323,35.307323 0 0 0 -5.60837,-0.42598 z m -35.7333,11.69723 -9.01039,6.75825 -3.83116,19.15795 10.10179,12.12162 c -2.8964,-12.30921 -1.52824,-26.12046 2.73976,-38.03756 z m 96.19985,0 c 4.26773,11.91736 5.63615,25.72861 2.73976,38.03756 l 10.10179,-12.12189 -3.83116,-19.15795 z m -87.61677,58.82613 c -0.948,0.30957 -1.91876,0.90117 -2.72044,1.7026 -1.09432,1.09431 -1.76742,2.49502 -1.89548,3.73168 0.0556,0.0963 0.15954,0.30612 0.45773,0.57203 0.64902,0.57891 1.77086,1.36789 3.2086,2.21139 2.87523,1.68804 7.02469,3.63987 11.69591,5.4565 5.60308,2.17937 11.99885,4.15501 17.92234,5.39221 v -7.30515 c -10.4431,-1.35467 -21.13941,-4.84849 -28.66892,-11.76126 z m 79.03369,0 c -7.52952,6.91224 -18.22583,10.40606 -28.66893,11.76073 v 7.30515 c 5.92322,-1.23719 12.319,-3.21284 17.92234,-5.39221 4.67122,-1.81637 8.82068,-3.76846 11.69591,-5.45624 1.43775,-0.84402 2.55958,-1.63248 3.2086,-2.21192 0.29819,-0.26564 0.40217,-0.47545 0.45773,-0.5715 -0.12753,-1.23692 -0.80089,-2.63789 -1.89521,-3.73194 -0.80168,-0.80169 -1.77271,-1.39277 -2.72044,-1.7026 z m -86.79207,9.17364 -15.69561,10.46374 v 11.60198 h 9.78959 v -4.7625 h 4.7625 v 4.7625 H 485.078 v -4.7625 h 4.7625 v 4.7625 h 9.78959 v -11.60198 l -15.69562,-10.46374 c -0.14208,0.12911 -0.28575,0.25664 -0.42941,0.38549 -1.0377,0.92525 -2.36326,1.82298 -3.96823,2.76543 -3.21019,1.88383 -7.52739,3.90075 -12.38118,5.78829 -9.70756,3.77507 -21.43442,7.04109 -30.49639,7.04109 -9.06198,0 -20.78885,-3.26575 -30.49641,-7.04056 -4.85378,-1.8878 -9.17099,-3.90446 -12.38118,-5.78856 -1.60496,-0.94191 -2.93052,-1.84017 -3.96822,-2.76569 -0.14367,-0.12885 -0.28733,-0.25664 -0.42942,-0.38576 z m 41.18981,3.0644 v 7.6708 c 2.17911,0.30745 4.23651,0.4826 6.08542,0.4826 1.8489,0 3.9063,-0.17515 6.08541,-0.4826 v -7.6708 c -2.06904,0.14684 -4.10712,0.2159 -6.08541,0.2159 -1.97829,0 -4.01638,-0.0688 -6.08542,-0.2159 z"
           fill="#ffffff"
           fill-opacity="1"
           id="path1324"
           style="fill:url(#linearGradient1377);fill-opacity:1.0;stroke-width:0.264583" />
        <path
           d="m -496.50155,-514.22141 c -21.50798,-0.0442 -42.42726,11.10457 -53.96574,31.09013 -17.1741,29.74605 -7.0141,67.71587 22.73247,84.88971 29.74631,17.1741 67.70952,6.98765 84.8831,-22.75813 17.1741,-29.74605 7.00458,-67.69973 -22.74173,-84.87384 -9.76048,-5.63509 -20.40467,-8.32644 -30.9081,-8.3476 z m 19.11985,27.63309 c 6.32037,0.0265 12.58808,1.59993 18.28747,4.88844 19.19738,11.07731 24.76103,37.47214 12.39256,58.88302 -12.36795,21.40929 -38.03306,29.81139 -57.2307,18.73435 -19.19711,-11.07731 -24.74913,-37.49145 -12.38091,-58.90154 8.69685,-15.05479 23.96146,-23.66777 38.93158,-23.60454 z m 18.48221,11.2178 c 3.6269,5.90709 5.03819,13.65197 4.09389,21.90618 -1.7727,-3.21469 -4.35054,-5.94598 -7.66101,-7.85177 -10.60185,-6.10394 -24.79807,-1.48802 -31.62829,10.30948 -6.83101,11.79672 -3.75708,26.38955 6.8453,32.49269 2.78342,1.60258 5.8166,2.46327 8.899,2.64953 -9.64327,5.97165 -20.38271,7.26546 -28.83853,2.38549 -0.52281,-0.30163 -1.02764,-0.62521 -1.51818,-0.96467 2.12276,2.26007 4.58735,4.23756 7.38188,5.84993 17.00556,9.81261 39.60548,2.39792 50.56134,-16.56767 10.32881,-17.88001 6.57569,-39.56235 -8.1354,-50.20919 z m -14.05203,16.41475 c 2.71833,0.0325 5.41497,0.72311 7.87824,2.14101 8.40793,4.84055 10.81564,16.26817 5.39856,25.62384 -5.41682,9.35567 -16.56028,13.0167 -24.96873,8.17615 -7.29139,-4.19761 -10.05496,-13.36939 -7.12788,-21.83341 1.12766,4.49077 5.21812,7.85204 10.04279,7.85204 5.68457,0 10.34124,-4.66514 10.34124,-10.34786 0,-5.11704 -3.7764,-9.39879 -8.67913,-10.20021 2.11826,-0.88107 4.34711,-1.36446 6.57172,-1.40944 0.18124,-0.003 0.36248,-0.004 0.54372,-0.002 z"
           fill="#ffffff"
           fill-opacity="1"
           id="path1390"
           style="fill:url(#linearGradient1377);fill-opacity:1.0;stroke-width:0.264583" />
      </g>
      <g
         id="g1460"
         transform="translate(-6.5251086)"
         style="fill:url(#linearGradient1377);fill-opacity:1.0">
        <path
           d="m 187.52278,-256.55238 c -8.19071,4.64291 -15.08919,7.93671 -21.31696,8.56456 -2.14047,0.21564 -4.20158,0.0495 -6.14944,-0.49953 -3.79148,5.18054 -4.21799,12.17189 -2.35612,19.05423 1.49649,5.53244 4.52517,10.83468 8.11213,14.60632 0.14129,-1.88965 0.36512,-3.71951 0.67733,-5.43983 0.90752,-4.99533 2.30902,-9.23343 5.64674,-11.46069 1.66873,-1.1139 3.97404,-1.39382 6.0034,-0.62521 1.51923,0.57573 2.92047,1.592 4.31588,3.0316 l 15.55485,-9.00907 -10.48808,-18.22238 z m 29.71006,0 -10.48809,18.22265 15.55486,9.00853 c 1.39541,-1.43933 2.79665,-2.45586 4.31588,-3.03133 2.02936,-0.76835 4.33494,-0.48816 6.00393,0.62547 3.33745,2.22727 4.73869,6.46563 5.64621,11.46096 0.3122,1.72032 0.53578,3.55018 0.6768,5.43983 3.58722,-3.77217 6.61591,-9.07441 8.11265,-14.60658 1.86214,-6.88234 1.43537,-13.87369 -2.35585,-19.05424 -1.94839,0.54901 -4.00923,0.71517 -6.14944,0.49927 -6.22776,-0.62759 -13.12651,-3.92112 -21.31748,-8.56456 z m -66.50276,1.1938 c -5.86978,3.95975 -9.07706,8.95773 -10.41426,14.54891 -1.48088,6.19284 -0.59876,13.19318 2.07327,19.99614 4.65138,11.84117 14.77433,22.84307 25.75243,27.65954 -1.51342,-4.6474 -2.30902,-9.95574 -2.46857,-15.1548 -5.93619,-4.47093 -10.58862,-11.85915 -12.74603,-19.83316 -2.05185,-7.58375 -1.77007,-15.91892 2.58445,-22.47371 -1.74811,-1.18798 -3.35386,-2.76622 -4.78102,-4.74292 z m 103.29492,0 c -1.42716,1.97644 -3.03318,3.55468 -4.78102,4.74292 4.35504,6.55452 4.6363,14.88969 2.58419,22.47371 -2.15768,7.97401 -6.81038,15.36223 -12.7463,19.83316 -0.15955,5.19906 -0.95515,10.5074 -2.46857,15.15454 10.97757,-4.81595 21.10132,-15.81785 25.75243,-27.65901 2.67229,-6.80296 3.55415,-13.80331 2.07327,-19.99615 -1.33694,-5.59117 -4.54422,-10.58915 -10.414,-14.54891 z m -57.00236,23.31508 -7.71975,4.47146 c 13.99911,26.51125 22.10594,55.51275 40.41087,78.23332 l 8.86143,-6.66485 c -11.31623,-12.52485 -17.80699,-24.66632 -23.42303,-37.16814 -5.50863,-12.26238 -10.27907,-24.86501 -18.12978,-38.87205 z m 10.71033,8e-4 c -0.88688,1.58353 -1.73725,3.15013 -2.55164,4.699 1.8124,3.55758 3.45149,7.02018 4.98898,10.40685 1.68328,-3.57452 3.43298,-7.12602 5.28453,-10.63413 l -7.7216,-4.47146 z m -13.12968,27.38966 c -1.67058,3.87879 -3.30147,7.69884 -5.00063,11.48159 -5.61604,12.50156 -12.10733,24.64329 -23.42303,37.16814 l 8.86195,6.66539 c 10.54101,-13.08312 17.69798,-28.25036 24.54752,-43.82427 -1.6682,-3.8346 -3.31682,-7.67238 -4.98581,-11.49085 z m -33.82936,50.77063 -4.61433,6.10659 13.37786,10.06104 4.61433,-6.10605 -13.37733,-10.06131 z m 83.20749,0 -13.3776,10.06211 4.61433,6.10605 13.37787,-10.06131 -4.61434,-6.10658 z"
           fill="#ffffff"
           fill-opacity="1"
           id="path884"
           style="fill:url(#linearGradient1377);fill-opacity:1.0;stroke-width:0.264583" />
        <path
           d="m 82.005477,-256.75915 c -21.58947,0 -40.40743,12.35789 -50.21183,30.6705 h 13.3059 l 4.42912,-8.85852 h 30.65595 c 0.54372,-1.12024 1.43298,-2.05607 2.44634,-2.73155 1.6674,-1.11152 3.75496,-1.69704 6.01874,-1.69704 2.26351,0 4.35134,0.58552 6.01874,1.69704 1.66741,1.11125 3.00594,2.9247 3.00594,5.1128 0,2.18811 -1.3388,4.0013 -3.00594,5.11281 -1.6674,1.11152 -3.75523,1.69704 -6.01874,1.69704 -2.26378,0 -4.35134,-0.58552 -6.01874,-1.69704 -1.01336,-0.67548 -1.90315,-1.61131 -2.44687,-2.73209 h -27.71272 l -2.04788,4.09628 h 13.8647 v 4.76224 h -34.78186 a 60.542487,60.542487 0 0 0 -1.57692,4.09574 h 9.78271 v 4.76198 h -11.20643 c -1.05992,4.15581 -1.6973,8.491 -1.86558,12.95479 h 29.07321 l 4.42966,-13.28738 h 10.5746 v 4.76171 h -7.14269 l -2.84242,8.52567 h 12.59258 c 0.54398,-1.12051 1.43351,-2.05661 2.44686,-2.73209 1.66741,-1.11151 3.75524,-1.69704 6.01875,-1.69704 2.26377,0 4.35133,0.58553 6.01874,1.69704 1.6674,1.11125 3.00672,2.92471 3.00672,5.11281 0,2.1881 -1.33932,4.00129 -3.00672,5.11281 -1.66741,1.11151 -3.75497,1.69704 -6.01874,1.69704 -2.26351,0 -4.35134,-0.58553 -6.01875,-1.69704 -1.01335,-0.67548 -1.90288,-1.61131 -2.44686,-2.73209 h -25.33121 l 6.47753,12.95479 h 20.67533 v 4.76198 h -23.61829 l -8.85878,-17.71677 h -16.02952 c 0.42704,11.33105 3.88673,21.83527 9.55913,30.67103 h 23.8379 c 0.54372,-1.12051 1.43405,-2.05661 2.4474,-2.73209 1.6674,-1.11151 3.75444,-1.69704 6.01821,-1.69704 2.26351,0 4.35134,0.58553 6.01874,1.69704 1.66741,1.11125 3.00646,2.92471 3.00646,5.11281 0,2.18811 -1.33905,4.0013 -3.00646,5.11281 -1.6674,1.11152 -3.75523,1.69704 -6.01874,1.69704 -2.26377,0 -4.35081,-0.58552 -6.01821,-1.69704 -1.01335,-0.67548 -1.90315,-1.61131 -2.44687,-2.73156 h -2.58868 l 5.68404,8.52488 h 19.40137 l 4.42912,-8.85825 h 10.33013 v 4.76197 h -7.38716 l -2.04841,4.09654 h 13.8647 v 4.76197 h -41.13795 l -8.85904,-13.28711 h -12.13036 c 10.53307,13.32707 26.52025,21.81225 44.41032,21.81225 24.430573,0 45.313073,-15.82367 53.599563,-38.19472 -1.2917,2.77998 -2.84956,5.1181 -4.74027,6.85086 -1.90818,1.74863 -4.24921,2.88766 -6.78075,2.88766 -2.53179,0 -4.87283,-1.13903 -6.78127,-2.88766 -1.90817,-1.7489 -3.47795,-4.11322 -4.77679,-6.92732 -2.59768,-5.62822 -4.11083,-13.10799 -4.11083,-21.35479 0,-8.2468 1.51315,-15.72683 4.11083,-21.35452 1.29911,-2.81437 2.86862,-5.17869 4.77706,-6.92758 1.90817,-1.74863 4.24921,-2.88766 6.781,-2.88766 2.53154,0 4.87257,1.13903 6.78075,2.88766 1.89071,1.73275 3.44857,4.07088 4.74027,6.85085 -8.28649,-22.37105 -29.16899,-38.19445 -53.599833,-38.19445 z m 6.64422,22.14536 c -1.40573,0 -2.64054,0.40561 -3.37767,0.89694 -0.73713,0.49159 -0.88583,0.89297 -0.88583,1.15093 0,0.25797 0.1487,0.65935 0.88583,1.15094 0.73739,0.49133 1.97194,0.89694 3.37767,0.89694 1.40573,0 2.64028,-0.40561 3.37741,-0.89694 0.73739,-0.49159 0.88529,-0.89297 0.88529,-1.15094 0,-0.25796 -0.14816,-0.65934 -0.88529,-1.15093 -0.73713,-0.49133 -1.97168,-0.89694 -3.37741,-0.89694 z m 42.078553,22.07683 c -3.06864,0 -5.31734,2.32992 -6.71248,5.11968 -1.39489,2.79004 -2.1598,6.36059 -2.1598,10.28383 0,3.92351 0.76491,7.49379 2.16006,10.28356 1.39488,2.79003 3.64331,5.12022 6.71222,5.12022 3.06863,0 5.31759,-2.33019 6.71274,-5.12022 1.39515,-2.78977 2.16006,-6.36005 2.16006,-10.28356 0,-3.92351 -0.76491,-7.49379 -2.16006,-10.28356 -1.39515,-2.79003 -3.64411,-5.12022 -6.71274,-5.12022 z m 1.22052,5.3332 c 0.41169,0.39608 0.8628,0.99722 1.30439,1.88013 0.96891,1.93781 1.66661,4.89929 1.66661,8.19018 0,3.29089 -0.6977,6.2521 -1.66687,8.19018 -0.9689,1.93781 -1.98596,2.53206 -2.52465,2.53206 -0.5387,0 -1.55575,-0.59425 -2.52492,-2.53206 -0.96917,-1.93781 -1.66608,-4.89929 -1.66608,-8.19018 0,-0.0669 0.002,-0.13282 0.003,-0.1995 a 4.3545125,6.5315042 0 0 0 2.01189,0.74348 4.3545125,6.5315042 0 0 0 4.35425,-6.53124 4.3545125,6.5315042 0 0 0 -0.95726,-4.08305 z m -52.158113,8.02217 c -1.40574,0 -2.63975,0.40587 -3.37688,0.8972 -0.73739,0.4916 -0.88583,0.89297 -0.88583,1.15094 0,0.25797 0.14844,0.65934 0.88583,1.15094 0.73713,0.49133 1.97114,0.89693 3.37688,0.89693 1.40599,0 2.64054,-0.4056 3.37767,-0.89693 0.73713,-0.4916 0.88582,-0.89297 0.88582,-1.15094 0,-0.25797 -0.14869,-0.65934 -0.88582,-1.15094 -0.73713,-0.49133 -1.97168,-0.89694 -3.37767,-0.89694 z m -13.28791,35.43274 c -1.40599,0 -2.64001,0.40561 -3.37714,0.89694 -0.73713,0.49159 -0.88582,0.89297 -0.88582,1.15093 0,0.25797 0.14869,0.65935 0.88582,1.15094 0.73713,0.49133 1.97115,0.89694 3.37714,0.89694 1.40573,0 2.64028,-0.40561 3.37741,-0.89694 0.73739,-0.49159 0.88582,-0.89297 0.88582,-1.15094 0,-0.25796 -0.14843,-0.65934 -0.88582,-1.15093 -0.73713,-0.49133 -1.97168,-0.89694 -3.37741,-0.89694 z"
           fill="#ffffff"
           fill-opacity="1"
           id="path906"
           style="fill:url(#linearGradient1377);fill-opacity:1.0;stroke-width:0.264583" />
        <path
           d="m -60.404631,-236.78894 c -0.49795,-3.83116 -7.45702,-8.04968 -10.87226,-8.04968 -0.67204,0 -1.2065,0.16193 -1.52744,0.52229 -5.77056,6.45186 3.7637,21.50057 3.7637,21.50057 0,0 9.4578,-7.61603 8.636,-13.97318 z m 34.0868,16.01364 c 0,0 9.07918,-14.33671 3.58352,-20.46816 -0.30559,-0.34184 -0.81571,-0.49742 -1.45415,-0.49742 -3.25649,0 -9.88272,4.01717 -10.35632,7.66763 -0.78502,6.02721 8.22695,13.29795 8.22695,13.29795 z m -14.21447,-13.32229 c -0.47361,-3.65072 -7.10274,-7.66763 -10.3558,-7.66763 -0.6387,0 -1.14908,0.15558 -1.45441,0.49742 -5.49857,6.14362 3.58352,20.46816 3.58352,20.46816 0,0 9.01171,-7.24614 8.22695,-13.29795 z m -49.35803,-15.18603 a 4.3777958,4.3777958 0 0 0 -0.44026,0.0212 c -23.217189,2.36458 3.0091,75.68565 10.72885,80.56139 0,0 -4.49368,-40.12036 0.73951,-64.62077 1.91506,-9.02415 -6.35159,-15.96179 -11.02862,-15.96179 z m 105.14384,0.0212 a 4.3563646,4.3563646 0 0 0 -0.44,-0.0212 c -4.67731,0 -12.9561198,6.93156 -11.0283698,15.96178 5.23293,24.50042 0.73925,64.62078 0.73925,64.62078 7.7319198,-4.87257 33.9492198,-78.19364 10.7288498,-80.56113 z m -19.0534398,4.42383 c -3.41842,0 -10.3870202,4.21878 -10.8727902,8.04968 -0.8218,6.34207 8.6391702,13.97609 8.6391702,13.97609 0,0 9.53136,-15.05162 3.7637,-21.50004 -0.32385,-0.3638 -0.8583,-0.52573 -1.53035,-0.52573 z m -39.2377102,92.33429 c -0.53764,-3.00831 -6.77281,-9.35381 -6.77281,-9.35381 0,0 -5.43454,6.34206 -5.37633,8.9236 0,0.56806 -0.30559,6.10976 0.5371,6.87917 0.76095,0.69982 3.39725,1.06971 5.98488,1.06971 2.50507,0 4.96094,-0.34529 5.62716,-1.06945 0.61118,-0.65352 0.0886,-6.01477 0,-6.44869 z m -15.88559,-6.4426 c -3.1922,-5.47423 -5.06809,-13.4964 -6.10976,-19.50853 -0.81862,-4.7535 -1.1086,-8.24812 -1.1086,-8.24812 -4.00235,3.12473 -11.71893,36.42651 0.67204,36.42651 a 7.9427917,7.9427917 0 0 0 1.31022,-0.11324 c 1.22237,-0.20161 2.76754,-1.13638 3.9714,-2.44369 1.5703,-1.70127 2.5019,-4.01373 1.2647,-6.11267 z m 49.9665702,-27.76273 c 0,0 -0.26617,3.18293 -0.99933,7.60359 -1.0080702,6.07616 -2.9051302,14.4833 -6.2137402,20.16231 -0.99589,1.7108 -0.56515,3.54992 0.46143,5.08953 1.22185,1.81504 3.25649,3.21072 4.77176,3.46128 a 7.9703083,7.9703083 0 0 0 1.3104802,0.11297 c 12.41214,-0.0122 4.67704,-33.31369 0.67813,-36.44212 z m -10.9553402,33.78729 c 0.0582,-2.58154 -5.37633,-8.92334 -5.37633,-8.92334 0,0 -6.226182,6.3328 -6.751642,9.34165 -0.0672,0.38205 -0.67813,5.71288 0,6.45213 0.67839,0.73924 3.125262,1.06891 5.627162,1.06891 2.58762,0 5.22393,-0.36936 5.98487,-1.06891 1.16073,-1.08162 0.51912,-6.69026 0.5252,-6.8797 z m -38.02751,1.45415 0.0643,0.0304 v -0.11642 z"
           fill="#ffffff"
           fill-opacity="1"
           id="path928"
           style="fill:url(#linearGradient1377);fill-opacity:1.0;stroke-width:0.264583" />
        <path
           d="m -154.30268,-260.79855 c 9.45806,9.6274 9.57262,25.0534 -0.4961,29.83971 -10.94105,5.20039 -26.3181,-1.48696 -19.28177,-19.79427 -19.62309,11.95043 -23.60983,31.74523 -16.84232,50.83307 -8.01502,-6.22089 -23.90828,-17.85938 -12.66693,-31.05547 -15.08125,3.00249 -19.01348,15.84192 -11.12916,23.95325 13.0249,13.3985 3.44487,31.45447 -7.41628,12.36081 -6.46694,32.56862 40.67123,39.86477 41.10117,61.19284 h 4.90273 c -2.21773,-18.17344 -16.52958,-28.61655 -31.89816,-41.39857 l 8.00364,-24.71367 c 0.0376,0.28152 0.0778,0.55033 0.11642,0.82682 -0.43392,12.32615 3.96928,33.73491 20.76132,32.23763 -3.81793,-1.75075 -6.90218,-4.19629 -9.40937,-7.00352 5.48693,-1.10966 10.219,-16.75236 8.54075,-41.37395 l 23.31667,-8.35131 c -17.05504,11.60727 -20.66793,31.10362 -10.43411,40.89479 l 11.83217,-27.50079 22.62134,-5.91159 c -17.16484,10.94 -28.00694,25.3119 -19.31458,38.28204 l 15.31276,-21.40638 27.83893,4.17618 c -33.14435,5.7613 -41.5933,26.97824 -45.93855,46.64075 0.82206,4.65483 2.83634,9.59328 5.36655,14.60237 h 3.61315 c -12.11184,-32.82052 35.59413,-35.29199 42.96092,-55.16564 7.097454,-19.14789 1.94998,-28.95335 -13.75833,-41.72214 12.76271,20.74677 -5.25727,30.84512 -10.1944,22.71315 -10.08009,-16.6018 18.57111,-40.36853 -27.50873,-53.15637 z"
           fill="#ffffff"
           fill-opacity="1"
           id="path950"
           style="fill:url(#linearGradient1377);fill-opacity:1.0;stroke-width:0.264583" />
        <path
           d="m -306.57614,-259.0048 v 22.75416 c 21.16667,8.46667 21.16667,8.46667 42.33334,0 v -22.75416 l -12.70001,12.7 -8.46666,-12.7 -8.46667,12.7 z m 42.21242,28.65702 c -1.25465,0.0516 -2.53047,0.3937 -3.7584,1.10252 -10.30129,5.94783 -23.75165,5.80839 -33.81111,5.3e-4 -1.61131,-0.93028 -3.25014,-1.22 -4.8006,-1.03003 a 12.271375,12.271375 0 0 1 2.49714,7.43215 c 0,6.1251 -4.50771,11.3321 -10.36532,11.93164 -3.38005,3.94759 -5.70283,8.41534 -6.45239,13.22441 11.83481,-6.29444 24.06332,-9.41176 36.26511,-9.39483 12.21052,0.0169 24.39379,3.1713 36.13151,9.42446 -0.71173,-4.80219 -2.96783,-9.27206 -6.29577,-13.208 -0.15478,0.007 -0.30956,0.0127 -0.46566,0.0127 -6.39763,0 -11.49536,-5.47687 -11.49536,-11.99038 0,-2.81517 0.95277,-5.43507 2.55085,-7.50438 z m -51.36833,0.85063 -5.3e-4,5.3e-4 c -3.35227,0 -6.15897,2.87073 -6.15897,6.65427 0,3.78301 2.8067,6.65348 6.15897,6.65348 3.35228,0 6.15871,-2.87073 6.15871,-6.65374 0,-3.78301 -2.80643,-6.65427 -6.15844,-6.65427 z m 60.31257,0 v 5.3e-4 c -3.35227,0 -6.15844,2.87073 -6.15844,6.65427 0,3.78301 2.80644,6.65348 6.15844,6.65348 3.35228,0 6.15871,-2.87073 6.15871,-6.65374 0,-3.78301 -2.8067,-6.65427 -6.15871,-6.65427 z m 18.09645,24.70547 c -2.47677,-0.0344 -5.0165,0.4355 -7.5872,1.12104 1.83251,5.14799 2.26722,10.77515 0.71279,16.57773 -1.12712,4.20582 0.24712,9.91526 3.09563,14.48805 l 1.24089,1.99232 -1.85737,1.43668 c -5.22923,4.04284 -9.64115,6.6429 -12.19809,9.33027 -2.55693,2.68764 -3.67453,5.18319 -2.88819,10.81485 0.12806,3.37211 1.60549,4.5122 3.61632,6.60664 5.25886,-3.84969 9.52765,-6.32037 18.08269,-1.08347 -1.78276,-4.97522 4.21666,-7.874 12.36107,-7.87902 -9.76577,-4.20159 -17.19263,-6.77863 -22.87006,-8.03725 17.85726,-19.09975 25.71274,-33.85609 17.4625,-42.11823 -2.90644,-2.32675 -5.98646,-3.20516 -9.17098,-3.24961 z m -96.32792,0.0312 c -3.34698,0.009 -6.5532,0.83634 -9.01594,3.21892 -8.25024,8.26214 -0.39476,23.01875 17.4625,42.11823 -5.6769,1.25836 -13.10429,3.83566 -22.87006,8.03672 8.14441,0.005 14.14383,2.90459 12.36107,7.87955 8.55451,-5.23663 12.82409,-2.76622 18.08268,1.08321 1.64915,-2.26219 4.31536,-3.92272 4.68948,-6.60639 0.78634,-5.63112 -0.33073,-8.1272 -2.88766,-10.81484 -2.55694,-2.68737 -6.96913,-5.28691 -12.19862,-9.33 l -1.85737,-1.43616 1.24142,-1.99231 c 2.83898,-4.55798 4.1955,-10.38014 3.09536,-14.48859 -1.52982,-5.70732 -1.10701,-11.22891 0.67125,-16.28775 -2.75828,-0.75962 -5.82083,-1.3888 -8.77411,-1.38059 z m 48.8606,2.52386 c -12.19623,-0.0172 -24.42104,3.39381 -36.39926,10.27774 a 23.089923,23.089923 0 0 0 0.65987,3.5216 v 8e-4 c 1.44278,5.38532 0.15664,11.35856 -2.50957,16.48274 4.20423,3.07817 8.02852,5.43031 10.97465,8.527 2.74109,2.88131 4.44368,6.64977 4.48601,11.56573 -0.28998,4.31482 -2.42305,10.39098 -5.9129,15.67496 6.5061,-3.76686 11.14822,-4.05684 11.98324,0.92393 3.72983,-4.70508 6.79926,-5.39379 10.31478,-2.12593 -0.99086,-8.32166 -2.94137,-13.99301 -4.56618,-17.22357 -3.94123,-9.67502 -11.3284,-16.26764 -19.5109,-22.0726 l 3.0054,-4.23704 c 10.26266,7.28054 20.31974,16.57985 23.58099,31.63544 2.54741,0.18653 5.09323,0.17198 7.63323,-0.0423 3.27078,-15.03098 13.31727,-24.32023 23.57014,-31.59363 l 3.00593,4.23757 c -8.25235,5.85443 -15.69878,12.5095 -19.61356,22.32104 -1.59967,3.26946 -3.47663,8.86169 -4.44341,16.97513 3.51631,-3.26759 6.58574,-2.57888 10.31557,2.12619 0.83424,-4.98077 5.47609,-4.69105 11.98245,-0.92419 -3.57452,-5.41204 -5.7269,-11.657 -5.93195,-15.98717 0.1098,-4.76515 1.80154,-8.4328 4.48442,-11.25352 2.94613,-3.09695 6.76963,-5.4491 10.97333,-8.52753 -2.66277,-5.10381 -3.9661,-11.04291 -2.50825,-16.48433 a 23.443935,23.443935 0 0 0 0.66411,-3.50996 c -11.86657,-6.82365 -24.0374,-10.27064 -36.23761,-10.2881 z"
           fill="#ffffff"
           fill-opacity="1"
           id="path972"
           style="fill:url(#linearGradient1377);fill-opacity:1.0;stroke-width:0.264583" />
        <path
           d="m -526.99523,-258.20756 c -3.31655,-0.01 -6.42091,0.75671 -9.86499,2.49343 h 10e-4 c -12.75825,6.43837 -23.70935,23.93632 -24.23429,38.53497 l 11.07229,3.76661 c 1.14564,-16.37506 12.4505,-33.96456 26.86235,-41.23795 h 5.3e-4 c 1.17025,-0.59003 2.33416,-1.1012 3.48853,-1.53459 l -5.88963,-1.97114 c -0.48418,-0.0325 -0.96228,-0.0503 -1.43615,-0.0513 z m 15.70038,5.34193 c -2.77231,-0.0238 -6.04097,0.81836 -9.63718,2.63076 l 0.001,-0.001 c -12.7609,6.44 -23.71333,23.94827 -24.22212,38.47998 l 41.40332,14.08641 c 1.02262,-16.46237 12.38171,-34.22967 26.88511,-41.54884 h 5.3e-4 l 5.3e-4,-7.9e-4 c 1.1385,-0.57362 2.27118,-1.07315 3.39513,-1.49913 l -35.59704,-11.91578 c -0.70168,-0.1434 -1.4441,-0.2241 -2.22965,-0.23098 z m 46.29415,15.4313 c -2.77178,-0.0238 -6.04044,0.81809 -9.63613,2.62996 l -0.001,5.3e-4 c -12.85299,6.48705 -23.87235,24.20222 -24.23245,38.79399 l 12.22507,4.15925 c 1.03558,-16.45391 12.38912,-34.20374 26.88352,-41.51841 1.19645,-0.60404 2.39183,-1.1266 3.57981,-1.56369 l -7.0231,-2.35056 c -0.57256,-0.0926 -1.17025,-0.14552 -1.7952,-0.15081 z m 16.81532,5.82454 c -2.71647,0.0246 -5.8457,0.88714 -9.34852,2.65482 -12.47722,6.29709 -23.22433,23.17406 -24.17286,37.50469 l 46.18302,-19.50667 c -0.10689,-10.32139 -2.84533,-16.22002 -6.4598,-18.80711 -0.62098,-0.4445 -1.28773,-0.80883 -1.99761,-1.09458 l -0.003,0.009 -1.2528,-0.4191 c -0.92039,-0.23469 -1.90332,-0.35111 -2.94816,-0.34132 z m -112.92972,19.6461 -0.009,49.60514 11.00534,3.82958 v -49.69299 l -10.99608,-3.7412 z m 15.94114,5.42343 v 49.73161 l 41.34962,14.3854 v -50.04965 l -7.68694,-2.61567 v 31.59919 l -26.73721,-9.01753 v -31.67724 z m 109.59572,0.97446 -46.02083,19.43814 v 50.0687 l 46.0203,-19.44794 v -50.05917 z m -97.72492,3.0644 v 26.44431 l 16.84735,5.68246 v -26.39563 l -16.84709,-5.7314 z m 8.28305,7.61921 c 2.56778,0 4.64952,2.08147 4.64952,4.64926 0,1.67745 -0.89165,3.14325 -2.22435,3.96081 v 7.54856 h -4.94507 v -7.60571 c -1.28005,-0.82815 -2.12936,-2.26536 -2.12936,-3.90366 0,-2.56779 2.08147,-4.64926 4.64926,-4.64926 z m 26.14004,4.09151 v 50.08748 l 12.33646,4.29155 v -50.18168 l -12.33673,-4.19735 z"
           fill="#ffffff"
           fill-opacity="1"
           id="path1060"
           style="fill:url(#linearGradient1377);fill-opacity:1.0;stroke-width:0.264583" />
        <path
           d="m -407.90495,-259.38527 10.44734,24.49989 c 4.08199,1.37319 8.0608,1.31233 12.20655,7.9e-4 l 9.06092,-24.50041 h -31.71481 z m -8.627,4.38494 1.21179,3.32052 c 2.19207,6.00737 5.70971,12.14967 7.6618,17.90806 1.95157,5.75839 2.40771,10.68441 -0.83079,15.25217 -3.6195,5.10513 -10.20973,10.32827 -16.03956,16.51688 -5.82983,6.1886 -10.99503,13.63239 -10.99503,23.3045 0,24.07602 19.54292,43.81685 43.63243,43.81685 24.08926,0 43.81686,-19.72786 43.81686,-43.81685 0,-9.6184 -4.92998,-17.1913 -10.67488,-23.47569 -5.74464,-6.28438 -12.39494,-11.52842 -16.46503,-16.48486 -2.42887,-2.95698 -2.13862,-9.03181 -0.23283,-15.59666 1.90553,-6.56484 5.0972,-13.23895 6.85483,-17.28787 l 1.50018,-3.45705 h -5.4475 l -8.72649,23.5974 c -1.22449,5.81104 -1.27,11.62049 2.23044,15.88293 4.62862,5.63615 11.26754,10.80876 16.637,16.68251 5.36972,5.87322 9.37948,12.19914 9.37948,20.13902 0,21.39209 -17.47944,38.87258 -38.87258,38.87258 -21.39236,0 -38.68738,-17.46646 -38.68738,-38.87258 0,-7.92374 4.16825,-14.09567 9.64936,-19.91413 5.48217,-5.81818 12.18141,-10.99343 16.47375,-17.0471 4.25555,-6.00207 3.69146,-12.85875 1.66423,-19.13043 l -6.41933,-15.05294 c -0.0307,-0.0701 -0.064,-0.14234 -0.0945,-0.21219 h 0.005 l -2.10872,-4.94507 z m 24.66578,53.50774 c -7.81209,0 -14.88123,1.21047 -19.77813,3.04271 -2.44846,0.91599 -4.34287,1.99761 -5.48534,3.00831 -1.03928,0.9197 -1.3925,1.64122 -1.44833,2.2278 h -0.0706 c 0,4.06056 2.06587,7.93485 5.53402,11.0826 -0.13361,-0.0574 -0.2712,-0.11298 -0.40296,-0.17198 -2.83818,-1.26471 -5.20753,-2.74585 -6.98156,-4.48522 -0.59002,-0.57864 -1.12183,-1.19909 -1.57083,-1.85737 -1.97908,3.21204 -3.2848,6.77016 -3.2848,10.88496 0,18.45997 15.01378,33.637 33.47429,33.637 18.4605,0 33.63647,-15.1765 33.63647,-33.63647 0,-4.16005 -1.30254,-7.80098 -3.27819,-11.09398 -0.47678,0.73607 -1.05833,1.4261 -1.71079,2.06586 -1.77403,1.73937 -4.14338,3.21998 -6.98156,4.48548 -0.11748,0.0524 -0.24024,0.10187 -0.35878,0.15346 3.45546,-3.14457 5.51313,-7.01146 5.51313,-11.06408 h -0.0937 c -0.0556,-0.58632 -0.40906,-1.30783 -1.4486,-2.22726 -1.14221,-1.01071 -3.03663,-2.09286 -5.48482,-3.00831 -4.89743,-1.83251 -11.9671,-3.04271 -19.77892,-3.04271 z"
           fill="#ffffff"
           fill-opacity="1"
           id="path1148"
           style="fill:url(#linearGradient1377);fill-opacity:1.0;stroke-width:0.264583" />
        <path
           d="m 274.18273,-240.33038 c -4.13385,19.81332 5.40279,32.7025 16.9664,39.83619 -8.74792,-2.06639 -17.21167,-5.15461 -25.99531,-9.7483 6.74687,20.50203 21.47464,25.35131 34.37096,24.01093 -7.12602,3.77084 -14.6558,6.69396 -22.20833,8.67304 18.53142,11.51256 32.01114,4.23466 39.42292,-5.89491 -7.98672,-4.71832 -13.94143,-14.233 -16.67722,-26.02019 -10.05417,-9.2112 -18.89495,-19.84692 -25.87969,-30.85703 z m 106.61067,0 c -6.9842,11.00878 -15.82631,21.63921 -25.87969,30.84856 -2.73526,11.79089 -8.68891,21.30954 -16.67668,26.02865 7.41098,10.12958 20.8907,17.40747 39.42291,5.89492 -7.55174,-1.97908 -15.07543,-4.90273 -22.20065,-8.67304 12.89473,1.33747 27.6172,-3.51367 34.36275,-24.01094 -8.78337,4.5937 -17.24739,7.68218 -25.99531,9.74831 11.56362,-7.13396 21.10052,-20.02287 16.96641,-39.83646 z m -53.3056,6.92864 c -6.23358,0 -11.88773,0.94615 -16.19726,2.60456 -2.15503,0.82894 -3.98066,1.82721 -5.40756,3.12473 -1.42663,1.29831 -2.51354,3.05065 -2.51354,5.06862 0,0.23548 0.0132,0.46699 0.0415,0.69453 0.69321,17.18522 8.48784,31.10257 17.80117,35.23933 l 1.83621,0.81862 -0.42201,1.9595 c -2.28733,10.65795 -5.4438,16.83015 -10.83204,20.38086 -2.96149,1.9521 -3.75285,3.49647 -3.80313,4.00209 -0.0503,0.50535 0.20241,1.11125 1.81081,2.09179 3.21681,1.96057 10.56349,3.48113 17.68581,3.48113 7.10988,0 14.09118,-1.57269 17.1151,-3.54754 1.51236,-0.98689 1.80235,-1.6457 1.75313,-2.25689 -0.0492,-0.61172 -0.77708,-2.09921 -3.46445,-4.02696 -5.11334,-3.66766 -8.2886,-9.55331 -10.5418,-20.12474 l -0.42201,-1.95951 1.83568,-0.81862 c 9.31334,-4.13676 17.10849,-18.0541 17.80117,-35.23932 h -0.008 c 0.0281,-0.22754 0.0413,-0.45905 0.0413,-0.69453 0,-2.01771 -1.07871,-3.77031 -2.5056,-5.06836 -1.4269,-1.29778 -3.26073,-2.29579 -5.41602,-3.12473 -4.30954,-1.65894 -9.95548,-2.60482 -16.1888,-2.60482 z m 0,4.94454 c 5.7195,0 10.88866,0.9181 14.41185,2.27356 1.76134,0.67786 3.09775,1.47188 3.86107,2.16641 0.76359,0.69453 0.89297,1.13241 0.89297,1.41393 0,0.28125 -0.12912,0.71914 -0.89271,1.41367 -0.76332,0.6948 -2.09973,1.48881 -3.86133,2.16694 -3.52292,1.35519 -8.69209,2.27356 -14.41132,2.27356 -5.71923,0 -10.8966,-0.9181 -14.41979,-2.27383 -1.7616,-0.67812 -3.09774,-1.47214 -3.86133,-2.16693 -0.76359,-0.69427 -0.89297,-1.13242 -0.89297,-1.41367 0,-0.28126 0.12965,-0.71914 0.89297,-1.41367 0.76359,-0.69453 2.09973,-1.48855 3.86133,-2.16641 3.52319,-1.35546 8.70056,-2.27383 14.41979,-2.27383 z"
           fill="#ffffff"
           fill-opacity="1"
           id="path1414"
           style="fill:url(#linearGradient1377);fill-opacity:1.0;stroke-width:0.264583" />
        <path
           d="m 479.78072,-259.95971 -46.27722,67.52696 0.40482,0.28046 8.45873,5.90391 46.31848,-67.60104 -8.90481,-6.11055 z m 23.82917,16.46238 c -5.334,7.78351 -11.67395,6.11187 -18.05782,2.35611 l -12.88203,19.28151 c 5.6298,4.37886 9.64671,9.43108 4.91966,16.33009 l 11.36836,7.79674 7.64831,-11.15404 -3.89467,-2.42253 c -0.83794,0.4879 -1.8124,0.76888 -2.85221,0.76888 -3.13531,0 -5.6806,-2.54529 -5.6806,-5.6806 0,-3.13452 2.54529,-5.67161 5.6806,-5.67161 3.13531,0 5.67187,2.53735 5.67187,5.67214 0,0.0516 -0.007,0.10583 -0.008,0.1569 l 4.20846,2.62122 4.74609,-6.93684 -9.97161,-6.21771 2.91835,-4.68842 3.95288,2.46407 2.67044,-4.28308 6.41614,3.99362 4.52226,-6.59871 -11.37708,-7.78827 z m -80.78867,50.2785 c -0.082,0.003 -0.16616,0.006 -0.24871,0.0167 -0.21881,0.0275 -0.43709,0.0751 -0.6694,0.1487 -0.92868,0.29369 -1.95791,1.0758 -2.6789,2.10026 -0.72073,1.02394 -1.10067,2.24552 -1.05834,3.20808 0.0423,0.96229 0.33258,1.67692 1.38907,2.41432 l 20.26549,14.14674 c 0.86863,0.60669 1.51527,0.62177 2.41406,0.30586 0.89852,-0.31538 1.93754,-1.12713 2.67891,-2.17435 0.74083,-1.04775 1.15146,-2.29129 1.14035,-3.22474 -0.0106,-0.93398 -0.23548,-1.53114 -1.15729,-2.17487 l -20.27343,-14.14595 c -0.67363,-0.47096 -1.23217,-0.64029 -1.80181,-0.62045 z m -15.06538,11.68295 c -6.44366,0.10848 -12.0396,2.51883 -15.25455,7.20989 -4.48469,6.545 -3.14008,15.80965 2.54661,23.88738 -0.4863,1.24883 -0.76067,2.6035 -0.76067,4.01822 0,6.14972 5.0456,11.19532 11.19531,11.19532 2.28468,0 4.41643,-0.69453 6.19284,-1.88516 11.43212,4.89162 23.30185,3.36392 28.64908,-4.44023 4.94639,-7.21784 2.87973,-17.7038 -4.33228,-26.2763 l -16.69363,-11.64961 c -3.7084,-1.35122 -7.42685,-2.03729 -10.91406,-2.05925 -0.20955,-0.001 -0.42069,-0.003 -0.62838,0 z m -2.27356,28.87292 c 3.47742,0 6.24258,2.76489 6.24258,6.24257 0,3.47742 -2.7649,6.25079 -6.24232,6.25079 -3.47715,0 -6.25051,-2.77337 -6.25051,-6.25079 0,-3.47741 2.77336,-6.24257 6.25051,-6.24257 z"
           fill="#ffffff"
           fill-opacity="1"
           id="path1436"
           style="fill:url(#linearGradient1377);fill-opacity:1.0;stroke-width:0.264583" />
      </g>
    </g>
  </g>
</svg>
