<?xml version="1.0" encoding="UTF-8" standalone="no"?>
<svg
   xmlns:osb="http://www.openswatchbook.org/uri/2009/osb"
   xmlns:dc="http://purl.org/dc/elements/1.1/"
   xmlns:cc="http://creativecommons.org/ns#"
   xmlns:rdf="http://www.w3.org/1999/02/22-rdf-syntax-ns#"
   xmlns:svg="http://www.w3.org/2000/svg"
   xmlns="http://www.w3.org/2000/svg"
   xmlns:sodipodi="http://sodipodi.sourceforge.net/DTD/sodipodi-0.dtd"
   xmlns:inkscape="http://www.inkscape.org/namespaces/inkscape"
   width="500"
   height="500"
   viewBox="0 0 132.29166 132.29167"
   version="1.1"
   id="svg8"
   sodipodi:docname="icon.svg"
   inkscape:version="1.0.1 (3bc2e813f5, 2020-09-07)">
  <sodipodi:namedview
     pagecolor="#ffffff"
     bordercolor="#666666"
     borderopacity="1"
     objecttolerance="10"
     gridtolerance="10"
     guidetolerance="10"
     inkscape:pageopacity="0"
     inkscape:pageshadow="2"
     inkscape:window-width="1920"
     inkscape:window-height="1027"
     id="namedview123"
     showgrid="false"
     units="px"
     inkscape:zoom="0.64"
     inkscape:cx="126.91053"
     inkscape:cy="400.4414"
     inkscape:window-x="-8"
     inkscape:window-y="-8"
     inkscape:window-maximized="1"
     inkscape:current-layer="svg8"
     inkscape:document-rotation="0" />
  <defs
     id="defs2">
    <rect
       x="-6509.5767"
       y="1267.5195"
       width="378.05453"
       height="25.357006"
       id="rect25755" />
    <linearGradient
       id="linearGradient2734"
       osb:paint="solid">
      <stop
         style="stop-color:#000000;stop-opacity:1;"
         offset="0"
         id="stop2732" />
    </linearGradient>
    <clipPath
       clipPathUnits="userSpaceOnUse"
       id="clipPath246">
      <circle
         style="opacity:1;fill:#dfd9dd;fill-opacity:1;stroke:none;stroke-width:2.30187;stroke-linecap:butt;stroke-linejoin:round;stroke-miterlimit:4;stroke-dasharray:none;stroke-opacity:1"
         id="circle248"
         cx="127.52917"
         cy="75.67083"
         r="322.26248" />
    </clipPath>
    <clipPath
       clipPathUnits="userSpaceOnUse"
       id="clipPath252">
      <circle
         style="opacity:1;fill:#dfd9dd;fill-opacity:1;stroke:none;stroke-width:2.30187;stroke-linecap:butt;stroke-linejoin:round;stroke-miterlimit:4;stroke-dasharray:none;stroke-opacity:1"
         id="circle254"
         cx="127.52917"
         cy="75.67083"
         r="322.26248" />
    </clipPath>
    <clipPath
       clipPathUnits="userSpaceOnUse"
       id="clipPath258">
      <circle
         style="opacity:1;fill:#dfd9dd;fill-opacity:1;stroke:none;stroke-width:2.30187;stroke-linecap:butt;stroke-linejoin:round;stroke-miterlimit:4;stroke-dasharray:none;stroke-opacity:1"
         id="circle260"
         cx="127.52917"
         cy="75.67083"
         r="322.26248" />
    </clipPath>
    <clipPath
       clipPathUnits="userSpaceOnUse"
       id="clipPath264">
      <circle
         style="opacity:1;fill:#dfd9dd;fill-opacity:1;stroke:none;stroke-width:2.30187;stroke-linecap:butt;stroke-linejoin:round;stroke-miterlimit:4;stroke-dasharray:none;stroke-opacity:1"
         id="circle266"
         cx="127.52917"
         cy="75.67083"
         r="322.26248" />
    </clipPath>
    <clipPath
       clipPathUnits="userSpaceOnUse"
       id="clipPath1095">
      <ellipse
         style="opacity:1;fill:#dfd9dd;fill-opacity:1;stroke:none;stroke-width:2.19549;stroke-linecap:butt;stroke-linejoin:round;stroke-miterlimit:4;stroke-dasharray:none;stroke-opacity:1"
         id="circle1097"
         cx="134.0479"
         cy="82.310753"
         rx="302.90533"
         ry="311.89795" />
    </clipPath>
    <clipPath
       clipPathUnits="userSpaceOnUse"
       id="clipPath1101">
      <circle
         style="opacity:1;fill:#dfd9dd;fill-opacity:1;stroke:none;stroke-width:2.30187;stroke-linecap:butt;stroke-linejoin:round;stroke-miterlimit:4;stroke-dasharray:none;stroke-opacity:1"
         id="circle1103"
         cx="127.52917"
         cy="75.67083"
         r="322.26248" />
    </clipPath>
    <clipPath
       clipPathUnits="userSpaceOnUse"
       id="clipPath1107">
      <circle
         style="opacity:1;fill:#dfd9dd;fill-opacity:1;stroke:none;stroke-width:2.30187;stroke-linecap:butt;stroke-linejoin:round;stroke-miterlimit:4;stroke-dasharray:none;stroke-opacity:1"
         id="circle1109"
         cx="127.52917"
         cy="75.67083"
         r="322.26248" />
    </clipPath>
    <clipPath
       clipPathUnits="userSpaceOnUse"
       id="clipPath2175">
      <circle
         style="opacity:1;fill:#dfd9dd;fill-opacity:1;stroke:none;stroke-width:2.30187;stroke-linecap:butt;stroke-linejoin:round;stroke-miterlimit:4;stroke-dasharray:none;stroke-opacity:1"
         id="circle2177"
         cx="143.98729"
         cy="-249.5434"
         r="322.26248"
         transform="rotate(55.116429)" />
    </clipPath>
    <clipPath
       clipPathUnits="userSpaceOnUse"
       id="clipPath1107-1">
      <circle
         style="opacity:1;fill:#dfd9dd;fill-opacity:1;stroke:none;stroke-width:2.30187;stroke-linecap:butt;stroke-linejoin:round;stroke-miterlimit:4;stroke-dasharray:none;stroke-opacity:1"
         id="circle1109-4"
         cx="127.52917"
         cy="75.67083"
         r="322.26248" />
    </clipPath>
    <clipPath
       clipPathUnits="userSpaceOnUse"
       id="clipPath1101-9">
      <circle
         style="opacity:1;fill:#dfd9dd;fill-opacity:1;stroke:none;stroke-width:2.30187;stroke-linecap:butt;stroke-linejoin:round;stroke-miterlimit:4;stroke-dasharray:none;stroke-opacity:1"
         id="circle1103-5"
         cx="127.52917"
         cy="75.67083"
         r="322.26248" />
    </clipPath>
    <clipPath
       clipPathUnits="userSpaceOnUse"
       id="clipPath2175-3">
      <circle
         style="opacity:1;fill:#dfd9dd;fill-opacity:1;stroke:none;stroke-width:2.30187;stroke-linecap:butt;stroke-linejoin:round;stroke-miterlimit:4;stroke-dasharray:none;stroke-opacity:1"
         id="circle2177-3"
         cx="143.98729"
         cy="-249.5434"
         r="322.26248"
         transform="rotate(55.116429)" />
    </clipPath>
    <clipPath
       clipPathUnits="userSpaceOnUse"
       id="clipPath1095-9">
      <ellipse
         style="opacity:1;fill:#dfd9dd;fill-opacity:1;stroke:none;stroke-width:2.19549;stroke-linecap:butt;stroke-linejoin:round;stroke-miterlimit:4;stroke-dasharray:none;stroke-opacity:1"
         id="circle1097-8"
         cx="134.0479"
         cy="82.310753"
         rx="302.90533"
         ry="311.89795" />
    </clipPath>
    <clipPath
       clipPathUnits="userSpaceOnUse"
       id="clipPath264-6">
      <circle
         style="opacity:1;fill:#dfd9dd;fill-opacity:1;stroke:none;stroke-width:2.30187;stroke-linecap:butt;stroke-linejoin:round;stroke-miterlimit:4;stroke-dasharray:none;stroke-opacity:1"
         id="circle266-8"
         cx="127.52917"
         cy="75.67083"
         r="322.26248" />
    </clipPath>
    <clipPath
       clipPathUnits="userSpaceOnUse"
       id="clipPath258-1">
      <circle
         style="opacity:1;fill:#dfd9dd;fill-opacity:1;stroke:none;stroke-width:2.30187;stroke-linecap:butt;stroke-linejoin:round;stroke-miterlimit:4;stroke-dasharray:none;stroke-opacity:1"
         id="circle260-2"
         cx="127.52917"
         cy="75.67083"
         r="322.26248" />
    </clipPath>
    <clipPath
       clipPathUnits="userSpaceOnUse"
       id="clipPath252-6">
      <circle
         style="opacity:1;fill:#dfd9dd;fill-opacity:1;stroke:none;stroke-width:2.30187;stroke-linecap:butt;stroke-linejoin:round;stroke-miterlimit:4;stroke-dasharray:none;stroke-opacity:1"
         id="circle254-4"
         cx="127.52917"
         cy="75.67083"
         r="322.26248" />
    </clipPath>
    <clipPath
       clipPathUnits="userSpaceOnUse"
       id="clipPath246-5">
      <circle
         style="opacity:1;fill:#dfd9dd;fill-opacity:1;stroke:none;stroke-width:2.30187;stroke-linecap:butt;stroke-linejoin:round;stroke-miterlimit:4;stroke-dasharray:none;stroke-opacity:1"
         id="circle248-3"
         cx="127.52917"
         cy="75.67083"
         r="322.26248" />
    </clipPath>
    <clipPath
       clipPathUnits="userSpaceOnUse"
       id="clipPath3096">
      <circle
         style="opacity:1;fill:#dfd9dd;fill-opacity:1;stroke:none;stroke-width:2.30187;stroke-linecap:butt;stroke-linejoin:round;stroke-miterlimit:4;stroke-dasharray:none;stroke-opacity:1"
         id="circle3098"
         cx="6.0476203"
         cy="985.7619"
         r="322.26248" />
    </clipPath>
    <clipPath
       clipPathUnits="userSpaceOnUse"
       id="clipPath3102">
      <circle
         style="opacity:1;fill:#dfd9dd;fill-opacity:1;stroke:none;stroke-width:2.30187;stroke-linecap:butt;stroke-linejoin:round;stroke-miterlimit:4;stroke-dasharray:none;stroke-opacity:1"
         id="circle3104"
         cx="6.0476203"
         cy="985.7619"
         r="322.26248" />
    </clipPath>
    <clipPath
       clipPathUnits="userSpaceOnUse"
       id="clipPath3096-7">
      <circle
         style="opacity:1;fill:#dfd9dd;fill-opacity:1;stroke:none;stroke-width:2.30187;stroke-linecap:butt;stroke-linejoin:round;stroke-miterlimit:4;stroke-dasharray:none;stroke-opacity:1"
         id="circle3098-5"
         cx="6.0476203"
         cy="985.7619"
         r="322.26248" />
    </clipPath>
    <clipPath
       clipPathUnits="userSpaceOnUse"
       id="clipPath1107-1-5">
      <circle
         style="opacity:1;fill:#dfd9dd;fill-opacity:1;stroke:none;stroke-width:2.30187;stroke-linecap:butt;stroke-linejoin:round;stroke-miterlimit:4;stroke-dasharray:none;stroke-opacity:1"
         id="circle1109-4-7"
         cx="127.52917"
         cy="75.67083"
         r="322.26248" />
    </clipPath>
    <clipPath
       clipPathUnits="userSpaceOnUse"
       id="clipPath3102-4">
      <circle
         style="opacity:1;fill:#dfd9dd;fill-opacity:1;stroke:none;stroke-width:2.30187;stroke-linecap:butt;stroke-linejoin:round;stroke-miterlimit:4;stroke-dasharray:none;stroke-opacity:1"
         id="circle3104-5"
         cx="6.0476203"
         cy="985.7619"
         r="322.26248" />
    </clipPath>
    <clipPath
       clipPathUnits="userSpaceOnUse"
       id="clipPath1095-9-0">
      <ellipse
         style="opacity:1;fill:#dfd9dd;fill-opacity:1;stroke:none;stroke-width:2.19549;stroke-linecap:butt;stroke-linejoin:round;stroke-miterlimit:4;stroke-dasharray:none;stroke-opacity:1"
         id="circle1097-8-4"
         cx="134.0479"
         cy="82.310753"
         rx="302.90533"
         ry="311.89795" />
    </clipPath>
    <clipPath
       clipPathUnits="userSpaceOnUse"
       id="clipPath3773">
      <circle
         style="opacity:1;fill:#dfd9dd;fill-opacity:1;stroke:none;stroke-width:2.30187;stroke-linecap:butt;stroke-linejoin:round;stroke-miterlimit:4;stroke-dasharray:none;stroke-opacity:1"
         id="circle3775"
         cx="-1513.8146"
         cy="1518.0908"
         r="322.26248" />
    </clipPath>
    <clipPath
       clipPathUnits="userSpaceOnUse"
       id="clipPath3096-1">
      <circle
         style="opacity:1;fill:#dfd9dd;fill-opacity:1;stroke:none;stroke-width:2.30187;stroke-linecap:butt;stroke-linejoin:round;stroke-miterlimit:4;stroke-dasharray:none;stroke-opacity:1"
         id="circle3098-9"
         cx="6.0476203"
         cy="985.7619"
         r="322.26248" />
    </clipPath>
    <clipPath
       clipPathUnits="userSpaceOnUse"
       id="clipPath1107-1-0">
      <circle
         style="opacity:1;fill:#dfd9dd;fill-opacity:1;stroke:none;stroke-width:2.30187;stroke-linecap:butt;stroke-linejoin:round;stroke-miterlimit:4;stroke-dasharray:none;stroke-opacity:1"
         id="circle1109-4-75"
         cx="127.52917"
         cy="75.67083"
         r="322.26248" />
    </clipPath>
    <clipPath
       clipPathUnits="userSpaceOnUse"
       id="clipPath3102-0">
      <circle
         style="opacity:1;fill:#dfd9dd;fill-opacity:1;stroke:none;stroke-width:2.30187;stroke-linecap:butt;stroke-linejoin:round;stroke-miterlimit:4;stroke-dasharray:none;stroke-opacity:1"
         id="circle3104-9"
         cx="6.0476203"
         cy="985.7619"
         r="322.26248" />
    </clipPath>
    <clipPath
       clipPathUnits="userSpaceOnUse"
       id="clipPath1095-9-2">
      <ellipse
         style="opacity:1;fill:#dfd9dd;fill-opacity:1;stroke:none;stroke-width:2.19549;stroke-linecap:butt;stroke-linejoin:round;stroke-miterlimit:4;stroke-dasharray:none;stroke-opacity:1"
         id="circle1097-8-0"
         cx="134.0479"
         cy="82.310753"
         rx="302.90533"
         ry="311.89795" />
    </clipPath>
    <clipPath
       clipPathUnits="userSpaceOnUse"
       id="clipPath3102-0-4">
      <circle
         style="opacity:1;fill:#dfd9dd;fill-opacity:1;stroke:none;stroke-width:2.30187;stroke-linecap:butt;stroke-linejoin:round;stroke-miterlimit:4;stroke-dasharray:none;stroke-opacity:1"
         id="circle3104-9-7"
         cx="6.0476203"
         cy="985.7619"
         r="322.26248" />
    </clipPath>
    <clipPath
       clipPathUnits="userSpaceOnUse"
       id="clipPath1095-9-2-8">
      <ellipse
         style="opacity:1;fill:#dfd9dd;fill-opacity:1;stroke:none;stroke-width:2.19549;stroke-linecap:butt;stroke-linejoin:round;stroke-miterlimit:4;stroke-dasharray:none;stroke-opacity:1"
         id="circle1097-8-0-7"
         cx="134.0479"
         cy="82.310753"
         rx="302.90533"
         ry="311.89795" />
    </clipPath>
    <clipPath
       clipPathUnits="userSpaceOnUse"
       id="clipPath3102-0-4-7">
      <circle
         style="opacity:1;fill:#dfd9dd;fill-opacity:1;stroke:none;stroke-width:2.30187;stroke-linecap:butt;stroke-linejoin:round;stroke-miterlimit:4;stroke-dasharray:none;stroke-opacity:1"
         id="circle3104-9-7-9"
         cx="6.0476203"
         cy="985.7619"
         r="322.26248" />
    </clipPath>
    <clipPath
       clipPathUnits="userSpaceOnUse"
       id="clipPath1095-9-2-8-4">
      <ellipse
         style="opacity:1;fill:#dfd9dd;fill-opacity:1;stroke:none;stroke-width:2.19549;stroke-linecap:butt;stroke-linejoin:round;stroke-miterlimit:4;stroke-dasharray:none;stroke-opacity:1"
         id="circle1097-8-0-7-0"
         cx="134.0479"
         cy="82.310753"
         rx="302.90533"
         ry="311.89795" />
    </clipPath>
  </defs>
  <metadata
     id="metadata5">
    <rdf:RDF>
      <cc:Work
         rdf:about="">
        <dc:format>image/svg+xml</dc:format>
        <dc:type
           rdf:resource="http://purl.org/dc/dcmitype/StillImage" />
        <dc:title />
      </cc:Work>
    </rdf:RDF>
  </metadata>
  <circle
     style="fill:#1a1a1a;fill-opacity:1;stroke:none;stroke-width:2.17227;stroke-linecap:butt;stroke-linejoin:round;stroke-miterlimit:4;stroke-dasharray:none;stroke-opacity:1"
     id="path5165-1-1-4-8-4-6-9-3-5-7"
     cx="66.145836"
     cy="66.145836"
     r="66.145836" />
  <g
     id="g1129"
     transform="matrix(1.4504354,0,0,1.4504354,-58.98079,-22.163152)">
    <path
       style="fill:#1a1a1a;fill-opacity:1;stroke:none;stroke-width:0;stroke-linejoin:round;stroke-opacity:0"
       d="M 107.32974,26.947804 71.414481,57.018802 94.407679,98.860125 130.32291,68.789127 Z"
       id="path3292-1" />
    <path
       style="fill:#000000;fill-opacity:0;stroke:none;stroke-width:0;stroke-linejoin:round;stroke-opacity:0"
       d="M 107.32974,26.947804 78.128927,22.908806 42.213724,52.979776 71.414481,57.018802 Z"
       id="path3294-2" />
    <path
       id="path3296-9"
       style="fill:#ececec;fill-opacity:1;stroke:none;stroke-width:0.657175;stroke-linecap:butt;stroke-linejoin:round;stroke-miterlimit:4;stroke-dasharray:none;stroke-opacity:1"
       d="m 51.71728,61.378181 c -0.203164,1.440985 1.219597,3.985162 3.17766,5.681859 1.95809,1.696164 3.709574,1.903303 3.912178,0.461702 0.203163,-1.441601 -1.219597,-3.985219 -3.17766,-5.681915 -1.957531,-1.696697 -3.709574,-1.903248 -3.912178,-0.461646 z" />
    <path
       style="fill:#1a1a1a;fill-opacity:1;stroke:none;stroke-width:0;stroke-linejoin:round;stroke-opacity:0"
       d="M 71.414481,57.018802 42.213724,52.979776 65.206866,94.821127 94.407679,98.860125 Z"
       id="path3298-6" />
    <path
       id="path3300-2"
       style="fill:#f9f9f9;fill-opacity:1;stroke:none;stroke-width:0.505776;stroke-linecap:butt;stroke-linejoin:round;stroke-miterlimit:4;stroke-dasharray:none;stroke-opacity:1"
       d="m 52.533965,62.085851 c -0.156383,1.109435 0.938802,3.066938 2.445437,4.372677 1.507251,1.305767 2.855235,1.465006 3.011031,0.355543 0.156383,-1.109406 -0.938802,-3.067525 -2.445465,-4.372676 -1.506635,-1.305796 -2.854648,-1.465034 -3.011003,-0.355544 z" />
    <path
       id="path3302-0"
       style="fill:#ececec;fill-opacity:1;stroke:none;stroke-width:0.657175;stroke-linecap:butt;stroke-linejoin:round;stroke-miterlimit:4;stroke-dasharray:none;stroke-opacity:1"
       d="m 64.765769,72.848282 c -0.203164,1.440985 1.219597,3.985162 3.17766,5.681859 1.95809,1.696165 3.709574,1.903304 3.912178,0.461702 0.203163,-1.441601 -1.219597,-3.98519 -3.17766,-5.681887 -1.957531,-1.696697 -3.709575,-1.903275 -3.912178,-0.461674 z" />
    <path
       id="path3304-0"
       style="fill:#f9f9f9;fill-opacity:1;stroke:none;stroke-width:0.505776;stroke-linecap:butt;stroke-linejoin:round;stroke-miterlimit:4;stroke-dasharray:none;stroke-opacity:1"
       d="m 65.582454,73.555953 c -0.156383,1.109406 0.938802,3.066937 2.445437,4.372676 1.507251,1.305767 2.855235,1.465006 3.01103,0.355543 0.156383,-1.109434 -0.938801,-3.067525 -2.445464,-4.372676 -1.506635,-1.305767 -2.854648,-1.465006 -3.011003,-0.355543 z" />
    <path
       style="fill:#1a1a1a;fill-opacity:1;stroke:none;stroke-width:0;stroke-linejoin:round;stroke-opacity:0"
       d="M 107.32974,26.947804 78.128927,22.908806 42.213724,52.979776 71.414481,57.018802 Z"
       id="path3308-9" />
    <path
       id="path3310-5"
       style="fill:#ececec;fill-opacity:1;stroke:none;stroke-width:0.657175;stroke-linecap:butt;stroke-linejoin:round;stroke-miterlimit:4;stroke-dasharray:none;stroke-opacity:1"
       d="m 58.881362,44.186047 c -2.442021,0.993617 -4.595857,2.823264 -4.810443,4.085638 -0.214585,1.262402 1.591126,1.479871 4.033147,0.486282 2.44205,-0.994205 4.595857,-2.82388 4.810443,-4.086226 0.214586,-1.26243 -1.591098,-1.479843 -4.033147,-0.485694 z" />
    <path
       id="path3312-4"
       style="fill:#f9f9f9;fill-opacity:1;stroke:none;stroke-width:0.505776;stroke-linecap:butt;stroke-linejoin:round;stroke-miterlimit:4;stroke-dasharray:none;stroke-opacity:1"
       d="m 58.791776,44.71225 c -1.879339,0.765314 -3.537206,2.173237 -3.702155,3.144541 -0.164922,0.971921 1.22472,1.139138 3.104059,0.374385 1.879311,-0.765314 3.536618,-2.173209 3.702128,-3.144569 0.164949,-0.971893 -1.22472,-1.13911 -3.104032,-0.374357 z" />
    <path
       id="path3318-9"
       style="fill:#ececec;fill-opacity:1;stroke:none;stroke-width:0.657175;stroke-linecap:butt;stroke-linejoin:round;stroke-miterlimit:4;stroke-dasharray:none;stroke-opacity:1"
       d="m 77.814258,84.318355 c -0.203164,1.441014 1.219597,3.985191 3.177659,5.681887 1.958091,1.696137 3.709575,1.903304 3.912179,0.461703 0.203163,-1.441602 -1.219597,-3.985191 -3.17766,-5.681888 -1.957531,-1.696696 -3.709575,-1.903303 -3.912178,-0.461702 z" />
    <path
       id="path3320-6"
       style="fill:#f9f9f9;fill-opacity:1;stroke:none;stroke-width:0.505776;stroke-linecap:butt;stroke-linejoin:round;stroke-miterlimit:4;stroke-dasharray:none;stroke-opacity:1"
       d="m 78.630943,85.026026 c -0.156383,1.109435 0.938802,3.066937 2.445437,4.372705 1.507251,1.305795 2.855235,1.465033 3.01103,0.355543 0.156383,-1.109435 -0.938802,-3.067498 -2.445465,-4.372705 -1.506635,-1.305739 -2.854647,-1.464978 -3.011002,-0.355543 z" />
    <path
       id="path3322-0"
       style="fill:#ececec;fill-opacity:1;stroke:none;stroke-width:0.657175;stroke-linecap:butt;stroke-linejoin:round;stroke-miterlimit:4;stroke-dasharray:none;stroke-opacity:1"
       d="m 76.838978,29.150576 c -2.442022,0.993589 -4.595857,2.823264 -4.810443,4.085638 -0.214586,1.26243 1.591126,1.479843 4.033147,0.486254 2.442049,-0.994177 4.595857,-2.823824 4.810443,-4.086226 0.214585,-1.262402 -1.591098,-1.479843 -4.033147,-0.485666 z" />
    <path
       id="path3324-2"
       style="fill:#f9f9f9;fill-opacity:1;stroke:none;stroke-width:0.505776;stroke-linecap:butt;stroke-linejoin:round;stroke-miterlimit:4;stroke-dasharray:none;stroke-opacity:1"
       d="m 76.749392,29.676751 c -1.879339,0.765314 -3.537206,2.173237 -3.702156,3.144597 -0.164921,0.971921 1.22472,1.139138 3.10406,0.374357 1.879311,-0.765286 3.536618,-2.173237 3.702127,-3.144542 0.16495,-0.971892 -1.22472,-1.139109 -3.104031,-0.374412 z" />
    <path
       id="path3326-6"
       style="fill:#ececec;fill-opacity:1;stroke:none;stroke-width:0.657175;stroke-linecap:butt;stroke-linejoin:round;stroke-miterlimit:4;stroke-dasharray:none;stroke-opacity:1"
       d="m 91.43937,31.170061 c -2.442021,0.993589 -4.595857,2.823264 -4.810442,4.085638 -0.214586,1.26243 1.591125,1.479843 4.033147,0.486254 2.442049,-0.994177 4.595856,-2.823824 4.810442,-4.086226 0.214586,-1.262402 -1.591097,-1.479843 -4.033147,-0.485666 z" />
    <path
       id="path3328-1"
       style="fill:#f9f9f9;fill-opacity:1;stroke:none;stroke-width:0.505776;stroke-linecap:butt;stroke-linejoin:round;stroke-miterlimit:4;stroke-dasharray:none;stroke-opacity:1"
       d="m 91.349785,31.696236 c -1.87934,0.765314 -3.537207,2.173237 -3.702156,3.144597 -0.164922,0.971921 1.22472,1.139138 3.104059,0.374356 1.879312,-0.765285 3.536619,-2.173236 3.702128,-3.144541 0.16495,-0.971892 -1.22472,-1.139109 -3.104031,-0.374412 z" />
    <path
       id="path3330-5"
       style="fill:#ececec;fill-opacity:1;stroke:none;stroke-width:0.657175;stroke-linecap:butt;stroke-linejoin:round;stroke-miterlimit:4;stroke-dasharray:none;stroke-opacity:1"
       d="m 73.481755,46.20556 c -2.442022,0.993589 -4.595857,2.823264 -4.810443,4.085666 -0.214586,1.262374 1.591126,1.479843 4.033147,0.486226 2.442049,-0.994149 4.595857,-2.823852 4.810443,-4.086226 0.214585,-1.262402 -1.591098,-1.479815 -4.033147,-0.485666 z" />
    <path
       id="path3332-8"
       style="fill:#f9f9f9;fill-opacity:1;stroke:none;stroke-width:0.505776;stroke-linecap:butt;stroke-linejoin:round;stroke-miterlimit:4;stroke-dasharray:none;stroke-opacity:1"
       d="m 73.392169,46.731735 c -1.879339,0.765314 -3.537206,2.173265 -3.702156,3.144569 -0.164921,0.971921 1.22472,1.139138 3.10406,0.374412 1.879311,-0.765313 3.536618,-2.173236 3.702127,-3.144597 0.16495,-0.971892 -1.22472,-1.139081 -3.104031,-0.374384 z" />
    <path
       id="path3334-9"
       style="fill:#ececec;fill-opacity:1;stroke:none;stroke-width:0.657175;stroke-linecap:butt;stroke-linejoin:round;stroke-miterlimit:4;stroke-dasharray:none;stroke-opacity:1"
       d="m 100.09195,44.20164 c -0.450284,2.699384 0.97875,5.212178 3.19135,5.611674 2.21318,0.400084 4.37273,-1.463857 4.82301,-4.16327 0.45087,-2.699384 -0.97819,-5.211646 -3.19135,-5.611674 -2.21319,-0.400084 -4.37217,1.463858 -4.82301,4.16327 z" />
    <path
       id="path3336-7"
       style="fill:#f9f9f9;fill-opacity:1;stroke:none;stroke-width:0.505776;stroke-linecap:butt;stroke-linejoin:round;stroke-miterlimit:4;stroke-dasharray:none;stroke-opacity:1"
       d="m 101.01535,44.368269 c -0.347,2.077912 0.75274,4.011451 2.4563,4.319094 1.70297,0.308174 3.36484,-1.126568 3.71184,-3.203948 0.34642,-2.077352 -0.75333,-4.01145 -2.4563,-4.319093 -1.70355,-0.308175 -3.36542,1.126568 -3.71184,3.203947 z" />
    <path
       id="path3338-9"
       style="fill:#ececec;fill-opacity:1;stroke:none;stroke-width:0.657175;stroke-linecap:butt;stroke-linejoin:round;stroke-miterlimit:4;stroke-dasharray:none;stroke-opacity:1"
       d="m 105.84024,54.661971 c -0.45028,2.699384 0.97875,5.212178 3.19135,5.611674 2.21318,0.400084 4.37273,-1.463858 4.82301,-4.16327 0.45087,-2.699384 -0.97819,-5.211646 -3.19135,-5.611674 -2.21318,-0.400084 -4.37217,1.46383 -4.82301,4.16327 z" />
    <path
       id="path3340-2"
       style="fill:#f9f9f9;fill-opacity:1;stroke:none;stroke-width:0.505776;stroke-linecap:butt;stroke-linejoin:round;stroke-miterlimit:4;stroke-dasharray:none;stroke-opacity:1"
       d="m 106.76364,54.8286 c -0.347,2.077912 0.75275,4.011451 2.4563,4.319093 1.70297,0.308175 3.36484,-1.126567 3.71184,-3.203947 0.34642,-2.077352 -0.75333,-4.01145 -2.45629,-4.319093 -1.70356,-0.308175 -3.36543,1.126568 -3.71185,3.203947 z" />
    <path
       id="path3342-9"
       style="fill:#ececec;fill-opacity:1;stroke:none;stroke-width:0.657175;stroke-linecap:butt;stroke-linejoin:round;stroke-miterlimit:4;stroke-dasharray:none;stroke-opacity:1"
       d="m 111.58853,65.122302 c -0.45028,2.699384 0.97875,5.212178 3.19135,5.611674 2.21319,0.400084 4.37273,-1.463858 4.82301,-4.16327 0.45087,-2.699384 -0.97819,-5.211646 -3.19135,-5.611674 -2.21318,-0.400084 -4.37217,1.46383 -4.82301,4.16327 z" />
    <path
       id="path3344-3"
       style="fill:#f9f9f9;fill-opacity:1;stroke:none;stroke-width:0.505776;stroke-linecap:butt;stroke-linejoin:round;stroke-miterlimit:4;stroke-dasharray:none;stroke-opacity:1"
       d="m 112.51194,65.288931 c -0.34701,2.077912 0.75274,4.01145 2.45629,4.319093 1.70297,0.308175 3.36484,-1.126568 3.71185,-3.203947 0.34641,-2.077352 -0.75333,-4.011451 -2.4563,-4.319093 -1.70356,-0.308175 -3.36543,1.126567 -3.71184,3.203947 z" />
    <path
       id="path3346-0"
       style="fill:#ececec;fill-opacity:1;stroke:none;stroke-width:0.657175;stroke-linecap:butt;stroke-linejoin:round;stroke-miterlimit:4;stroke-dasharray:none;stroke-opacity:1"
       d="m 82.134331,59.237111 c -0.45028,2.69944 0.978751,5.212234 3.191349,5.611702 2.213186,0.400056 4.372733,-1.463829 4.823013,-4.16327 0.450868,-2.699412 -0.978192,-5.211618 -3.19135,-5.611702 -2.213186,-0.400028 -4.372172,1.463886 -4.823012,4.16327 z" />
    <path
       id="path3348-1"
       style="fill:#f9f9f9;fill-opacity:1;stroke:none;stroke-width:0.505776;stroke-linecap:butt;stroke-linejoin:round;stroke-miterlimit:4;stroke-dasharray:none;stroke-opacity:1"
       d="m 83.057735,59.40374 c -0.347005,2.077968 0.752744,4.011479 2.456299,4.319122 1.702968,0.308174 3.364838,-1.126568 3.711842,-3.20392 0.346417,-2.07738 -0.753331,-4.011506 -2.456299,-4.319093 -1.703555,-0.308175 -3.365425,1.126568 -3.711842,3.203891 z" />
    <path
       id="path3350-5"
       style="fill:#ececec;fill-opacity:1;stroke:none;stroke-width:0.657175;stroke-linecap:butt;stroke-linejoin:round;stroke-miterlimit:4;stroke-dasharray:none;stroke-opacity:1"
       d="m 87.882623,69.69747 c -0.45028,2.699412 0.978752,5.212206 3.19135,5.611702 2.213186,0.400084 4.372732,-1.46383 4.823012,-4.16327 0.450868,-2.699384 -0.978191,-5.211646 -3.191349,-5.611674 -2.213186,-0.400084 -4.372173,1.463858 -4.823013,4.163242 z" />
    <path
       id="path3352-4"
       style="fill:#f9f9f9;fill-opacity:1;stroke:none;stroke-width:0.505776;stroke-linecap:butt;stroke-linejoin:round;stroke-miterlimit:4;stroke-dasharray:none;stroke-opacity:1"
       d="m 88.806027,69.864127 c -0.347004,2.077912 0.752744,4.011451 2.4563,4.319093 1.702967,0.308175 3.364837,-1.126567 3.711842,-3.203947 0.346416,-2.077352 -0.753332,-4.01145 -2.456299,-4.319093 -1.703556,-0.308175 -3.365426,1.126568 -3.711843,3.203947 z" />
    <path
       id="path3354-8"
       style="fill:#ececec;fill-opacity:1;stroke:none;stroke-width:0.657175;stroke-linecap:butt;stroke-linejoin:round;stroke-miterlimit:4;stroke-dasharray:none;stroke-opacity:1"
       d="m 93.630944,80.157801 c -0.45028,2.699412 0.978751,5.212206 3.191349,5.611702 2.213186,0.400084 4.372737,-1.463858 4.823017,-4.16327 0.45086,-2.699384 -0.9782,-5.211646 -3.191354,-5.611674 -2.213186,-0.400084 -4.372172,1.463858 -4.823012,4.163242 z" />
    <path
       id="path3356-6"
       style="fill:#f9f9f9;fill-opacity:1;stroke:none;stroke-width:0.505776;stroke-linecap:butt;stroke-linejoin:round;stroke-miterlimit:4;stroke-dasharray:none;stroke-opacity:1"
       d="m 94.554348,80.324458 c -0.347005,2.077912 0.752744,4.01145 2.456299,4.319093 1.702968,0.308175 3.364833,-1.126568 3.711843,-3.203947 0.34642,-2.077352 -0.753332,-4.011479 -2.4563,-4.319093 -1.703555,-0.308175 -3.365425,1.126567 -3.711842,3.203947 z" />
  </g>
</svg>
